<svg width="73" height="66" viewBox="0 0 73 66" fill="none" xmlns="http://www.w3.org/2000/svg">
<path d="M7.62473 0.624735C5.72679 0.624735 3.90659 1.37869 2.56454 2.72073C1.2225 4.06278 0.468549 5.88298 0.468549 7.78092L0.468547 25.2563C0.468547 27.1543 1.2225 28.9745 2.56454 30.3165C3.90659 31.6585 5.72679 32.4125 7.62473 32.4125L17.5575 32.4125C17.5575 34.9243 17.4072 37.4433 17.1138 39.9551C16.6701 42.6172 15.9259 44.9859 14.8954 47.054C13.8578 49.1293 12.5267 50.7538 10.8951 51.9417C9.27065 53.2728 7.20251 53.9383 4.68353 53.9383L4.68353 65.0304C8.82696 65.0304 12.448 64.143 15.5609 62.3683C18.6468 60.6115 21.2999 58.1858 23.3254 55.2693C25.3583 52.054 26.8567 48.5304 27.7622 44.8356C28.6747 40.7583 29.1213 36.5906 29.0933 32.4125L29.0933 7.78092C29.0933 5.88298 28.3393 4.06278 26.9973 2.72073C25.6552 1.37869 23.835 0.624736 21.9371 0.624736L7.62473 0.624735ZM50.5618 0.624739C48.6639 0.624739 46.8437 1.37869 45.5016 2.72074C44.1596 4.06278 43.4057 5.88298 43.4057 7.78092L43.4056 25.2563C43.4056 27.1543 44.1596 28.9745 45.5016 30.3165C46.8437 31.6585 48.6639 32.4125 50.5618 32.4125L60.4946 32.4125C60.4946 34.9243 60.3443 37.4433 60.0509 39.9551C59.6072 42.6172 58.863 44.9859 57.8325 47.054C56.7949 49.1293 55.4638 50.7538 53.8322 51.9417C52.2077 53.2728 50.1396 53.9383 47.6206 53.9383L47.6206 65.0304C51.7641 65.0304 55.3851 64.143 58.498 62.3683C61.5839 60.6115 64.237 58.1858 66.2625 55.2693C68.2954 52.054 69.7938 48.5304 70.6993 44.8356C71.6118 40.7583 72.0584 36.5906 72.0304 32.4125L72.0304 7.78092C72.0304 5.88298 71.2764 4.06278 69.9344 2.72074C68.5923 1.37869 66.7721 0.62474 64.8742 0.62474L50.5618 0.624739Z" fill="#AAAAAA" fill-opacity="0.6"/>
</svg>
