<svg width="112" height="112" viewBox="0 0 112 112" fill="none" xmlns="http://www.w3.org/2000/svg">
<path d="M50.6304 22.7837C46.3222 22.7837 42.1905 24.4951 39.1442 27.5414C36.0979 30.5878 34.3865 34.7195 34.3865 39.0276H43.6687C43.6687 37.1813 44.4022 35.4105 45.7078 34.105C47.0133 32.7994 48.784 32.0659 50.6304 32.0659C52.4768 32.0659 54.2475 32.7994 55.5531 34.105C56.8586 35.4105 57.5921 37.1813 57.5921 39.0276C57.5921 40.874 56.8586 42.6447 55.5531 43.9503C54.2475 45.2558 52.4768 45.9893 50.6304 45.9893C48.0778 45.9893 45.9893 48.0778 45.9893 50.6304V58.7524L6.07566 88.6876C5.29638 89.272 4.72076 90.0869 4.43032 91.0166C4.13987 91.9464 4.14934 92.944 4.45737 93.8681C4.76541 94.7922 5.35639 95.596 6.14662 96.1656C6.93684 96.7351 7.88624 97.0416 8.86033 97.0416H92.4005C93.3746 97.0416 94.324 96.7351 95.1142 96.1656C95.9044 95.596 96.4954 94.7922 96.8034 93.8681C97.1115 92.944 97.1209 91.9464 96.8305 91.0166C96.54 90.0869 95.9644 89.272 95.1852 88.6876L55.2715 58.7524V54.5754C58.6207 53.5768 61.5586 51.5247 63.6488 48.7238C65.7391 45.9229 66.8702 42.5225 66.8743 39.0276C66.8743 34.7195 65.1629 30.5878 62.1166 27.5414C59.0703 24.4951 54.9386 22.7837 50.6304 22.7837ZM50.6304 66.8743L78.4771 87.7594H22.7837L50.6304 66.8743Z" fill="#FEAE11"/>
<path d="M55.6934 18.5645C51.3853 18.5645 47.2536 20.2759 44.2072 23.3222C41.1609 26.3685 39.4495 30.5002 39.4495 34.8084H48.7317C48.7317 32.962 49.4652 31.1913 50.7708 29.8858C52.0763 28.5802 53.8471 27.8467 55.6934 27.8467C57.5398 27.8467 59.3105 28.5802 60.6161 29.8858C61.9216 31.1913 62.6551 32.962 62.6551 34.8084C62.6551 36.6548 61.9216 38.4255 60.6161 39.7311C59.3105 41.0366 57.5398 41.7701 55.6934 41.7701C53.1408 41.7701 51.0523 43.8586 51.0523 46.4112V54.5332L11.1387 84.4684C10.3594 85.0528 9.78378 85.8677 9.49333 86.7974C9.20289 87.7272 9.21236 88.7248 9.52039 89.6489C9.82843 90.573 10.4194 91.3768 11.2096 91.9464C11.9999 92.5159 12.9493 92.8224 13.9233 92.8224H97.4635C98.4376 92.8224 99.387 92.5159 100.177 91.9464C100.967 91.3768 101.558 90.573 101.866 89.6489C102.174 88.7248 102.184 87.7272 101.894 86.7974C101.603 85.8677 101.027 85.0528 100.248 84.4684L60.3345 54.5332V50.3562C63.6838 49.3576 66.6216 47.3055 68.7118 44.5046C70.8021 41.7037 71.9332 38.3033 71.9373 34.8084C71.9373 30.5002 70.2259 26.3685 67.1796 23.3222C64.1333 20.2759 60.0016 18.5645 55.6934 18.5645ZM55.6934 62.6551L83.5401 83.5402H27.8467L55.6934 62.6551Z" fill="#152536"/>
</svg>