<svg width="96" height="96" viewBox="0 0 96 96" fill="none" xmlns="http://www.w3.org/2000/svg">
<path d="M8.20008 2.07446C8.11212 2.07353 8.02453 2.07708 7.93675 2.08008C7.81978 2.08438 7.70243 2.09243 7.58583 2.10366C6.18815 2.23841 4.838 2.87998 3.41037 4.18578C1.54161 5.89414 1.00297 7.49096 1.27547 9.37338C1.54778 11.2554 2.83879 13.535 5.22916 15.9063C5.77097 16.4438 6.37568 16.98 7.02455 17.5205C7.26224 17.7179 7.50461 17.9191 7.75577 18.1168C7.96845 18.2848 8.18294 18.4505 8.39921 18.6139C8.44263 18.6466 8.48418 18.6809 8.52798 18.7134C11.5496 20.9664 15.4515 23.1936 20.0727 25.2411C49.9659 55.4313 74.1264 80.9301 90.1805 91.1434C80.6149 75.1183 55.1013 50.9759 24.6757 20.8603C22.761 16.4056 20.7239 12.6797 18.6691 9.76529C25.3056 7.85816 34.1127 9.33595 42.204 17.4275C49.7357 24.959 52.0563 34.4168 49.9476 41.4477C50.8628 42.3674 51.7973 43.303 52.6966 44.2083C56.2656 35.5804 53.5524 23.8279 44.678 14.9533C37.9977 8.27309 30.5514 5.5348 23.8977 5.55427C23.683 5.5552 23.4672 5.55988 23.2542 5.56624C19.166 5.6879 15.4017 6.85725 12.3347 8.78291C11.7985 9.11967 11.2793 9.48282 10.7791 9.87103C11.028 10.4501 11.2953 10.9723 11.6037 11.4091C11.963 11.9182 12.3531 12.3329 12.8962 12.6608C13.3083 12.3394 13.738 12.0291 14.1947 11.7426C14.3948 11.6154 14.5976 11.4924 14.803 11.3739C16.3369 13.2619 17.6973 15.9824 19.5698 20.2171C15.0955 18.2392 12.304 16.8407 10.393 15.1638C10.3975 15.1582 10.4005 15.152 10.405 15.1464C10.3239 15.0847 10.2427 15.0238 10.1654 14.9593C10.163 14.9578 10.1613 14.9555 10.1592 14.9536C8.06027 13.0119 7.06516 10.6614 5.98377 6.62518C7.10447 6.92556 8.09041 7.22221 8.97828 7.53176C10.5325 6.35398 12.2159 5.35718 13.9959 4.56065C12.218 3.11243 10.5238 2.32787 9.00148 2.13323C8.73142 2.09861 8.46434 2.0769 8.20008 2.07446ZM89.8878 10.6717C75.2924 10.6717 66.3833 16.0779 62.5397 23.6615C58.6962 31.2451 59.9206 40.5786 64.3529 48.2552C66.4836 51.9459 67.6856 55.87 67.9438 59.7129C69.0998 60.9063 70.252 62.1033 71.4006 63.3039C71.833 57.6976 70.4514 51.8218 67.3824 46.5066C63.4278 39.6563 62.4873 31.5131 65.6631 25.2467C68.8392 18.9805 76.1327 14.1693 89.8881 14.1693V10.6721L89.8878 10.6717ZM4.6617 20.1351C4.12007 24.6128 5.81833 29.5322 10.1888 33.9027L12.6626 31.4345C9.67375 28.4456 8.32285 25.4767 8.0891 22.7143C6.84525 21.8702 5.7021 21.0108 4.66151 20.1349L4.6617 20.1351ZM20.7862 50.466C16.2072 50.4608 12.3566 51.3869 9.30543 53.0219C4.65608 55.5129 1.93838 59.7342 1.67879 64.3392C1.1585 73.5486 9.9848 83.5508 27.9565 86.4761C46.9772 89.5724 59.8299 84.7573 66.3996 76.358C66.5886 76.1166 66.7717 75.8733 66.9498 75.627C66.0979 74.835 65.2377 74.0324 64.3703 73.2174C64.1395 73.5524 63.8986 73.8818 63.645 74.2056C58.036 81.3765 46.7345 85.9908 28.5182 83.0255C11.6003 80.2715 4.78747 71.3232 5.17039 64.5376C5.36185 61.145 7.22574 58.105 10.9606 56.104C14.6953 54.1029 20.3684 53.2285 27.8983 54.7059C34.276 55.958 39.6776 55.3553 43.8884 53.4078C43.005 52.5375 42.1123 51.6616 41.2158 50.7756C37.9321 51.9831 33.7501 52.2893 28.5708 51.2727C25.7831 50.7256 23.1848 50.4685 20.7862 50.4657V50.466Z" fill="#FEAE11"/>
<path d="M10.6331 3.57172C10.5452 3.57078 10.4576 3.57434 10.3698 3.57733C10.2528 3.58164 10.1355 3.58968 10.0189 3.60091C8.62118 3.73567 7.27104 4.37724 5.8434 5.68303C3.97465 7.3914 3.43601 8.98822 3.70851 10.8706C3.98082 12.7527 5.27183 15.0323 7.66219 17.4035C8.20401 17.941 8.80871 18.4772 9.45759 19.0178C9.69527 19.2152 9.93764 19.4164 10.1888 19.614C10.4015 19.782 10.616 19.9478 10.8323 20.1111C10.8757 20.1439 10.9172 20.1781 10.961 20.2107C13.9827 22.4637 17.8845 24.6908 22.5058 26.7383C52.399 56.9286 76.5594 82.4273 92.6135 92.6407C83.0479 76.6156 57.5344 52.4731 27.1087 22.3576C25.1941 17.9029 23.1569 14.1769 21.1021 11.2625C27.7387 9.35542 36.5457 10.8332 44.637 18.9247C52.1688 26.4563 54.4893 35.9141 52.3806 42.945C53.2958 43.8647 54.2303 44.8003 55.1296 45.7055C58.6987 37.0776 55.9855 25.3251 47.1111 16.4505C40.4307 9.77034 32.9845 7.03205 26.3307 7.05152C26.116 7.05245 25.9002 7.05713 25.6872 7.0635C21.599 7.18515 17.8347 8.3545 14.7678 10.2802C14.2316 10.6169 13.7124 10.9801 13.2121 11.3683C13.4611 11.9473 13.7283 12.4695 14.0367 12.9063C14.3961 13.4154 14.7861 13.8301 15.3292 14.158C15.7414 13.8367 16.1711 13.5264 16.6277 13.2399C16.8278 13.1126 17.0306 12.9897 17.236 12.8712C18.7699 14.7592 20.1304 17.4797 22.0029 21.7143C17.5285 19.7364 14.7371 18.338 12.826 16.6611C12.8305 16.6555 12.8335 16.6493 12.838 16.6437C12.757 16.5819 12.6757 16.5211 12.5984 16.4565C12.596 16.455 12.5943 16.4528 12.5923 16.4509C10.4933 14.5091 9.4982 12.1586 8.41681 8.12243C9.5375 8.42282 10.5234 8.71946 11.4113 9.02902C12.9656 7.85123 14.649 6.85443 16.429 6.0579C14.651 4.60969 12.9569 3.82513 11.4345 3.63048C11.1645 3.59586 10.8974 3.57415 10.6331 3.57172ZM92.3208 12.1689C77.7254 12.1689 68.8164 17.5751 64.9727 25.1587C61.1293 32.7423 62.3537 42.0758 66.7859 49.7524C68.9167 53.4432 70.1186 57.3673 70.3769 61.2102C71.5328 62.4036 72.6851 63.6006 73.8337 64.8011C74.266 59.1948 72.8844 53.3191 69.8154 48.0038C65.8608 41.1535 64.9203 33.0103 68.0962 26.744C71.2722 20.4778 78.5657 15.6665 92.3212 15.6665V12.1693L92.3208 12.1689ZM7.09473 21.6323C6.5531 26.1101 8.25136 31.0295 12.6218 35.3999L15.0957 32.9317C12.1068 29.9428 10.7559 26.974 10.5221 24.2115C9.27829 23.3675 8.13514 22.508 7.09455 21.6321L7.09473 21.6323ZM23.2192 51.9633C18.6402 51.9581 14.7897 52.8841 11.7385 54.5191C7.08912 57.0102 4.37142 61.2315 4.11183 65.8365C3.59154 75.0459 12.4178 85.0481 30.3896 87.9734C49.4103 91.0697 62.2629 86.2545 68.8326 77.8553C69.0217 77.6139 69.2047 77.3706 69.3829 77.1243C68.5309 76.3322 67.6708 75.5297 66.8033 74.7146C66.5725 75.0496 66.3317 75.379 66.0781 75.7028C60.469 82.8737 49.1675 87.4881 30.9512 84.5228C14.0334 81.7687 7.2205 72.8204 7.60343 66.0349C7.79489 62.6423 9.65878 59.6023 13.3937 57.6012C17.1284 55.6001 22.8015 54.7257 30.3313 56.2031C36.7091 57.4552 42.1106 56.8526 46.3214 54.905C45.4381 54.0348 44.5453 53.1589 43.6489 52.2729C40.3652 53.4804 36.1832 53.7866 31.0038 52.7699C28.2161 52.2229 25.6178 51.9657 23.2192 51.9629V51.9633Z" fill="#152536"/>
</svg>