<svg width="97" height="98" viewBox="0 0 97 98" fill="none" xmlns="http://www.w3.org/2000/svg">
<path d="M70.3069 47.5911H74.329H70.3069ZM90.4176 47.5911H94.4397H90.4176ZM27.0126 27.4804C28.0798 26.3012 28.9033 24.9225 29.4359 23.4238C29.9684 21.9252 30.1993 20.336 30.1155 18.7477C30.0316 17.1594 29.6346 15.6034 28.9472 14.1691C28.2598 12.7348 27.2957 11.4506 26.1102 10.3902C24.9248 9.3299 23.5414 8.51438 22.0396 7.99059C20.5379 7.4668 18.9474 7.24507 17.3596 7.33816C15.7718 7.43125 14.2182 7.83731 12.7879 8.533C11.3576 9.22869 10.079 10.2003 9.02557 11.3919C6.914 13.7804 5.8335 16.9075 6.02009 20.0901C6.20668 23.2727 7.6452 26.2521 10.0214 28.3776C12.3976 30.503 15.5184 31.6016 18.702 31.4335C21.8857 31.2654 24.8734 29.8443 27.0126 27.4804ZM27.0126 27.4804L78.3512 71.724L27.0126 27.4804ZM27.0126 67.7019C28.0798 68.8811 28.9033 70.2598 29.4359 71.7585C29.9684 73.2571 30.1993 74.8463 30.1155 76.4346C30.0316 78.0229 29.6346 79.5789 28.9472 81.0132C28.2598 82.4475 27.2957 83.7317 26.1102 84.7921C24.9248 85.8524 23.5414 86.6679 22.0396 87.1917C20.5379 87.7155 18.9474 87.9372 17.3596 87.8441C15.7718 87.7511 14.2182 87.345 12.7879 86.6493C11.3576 85.9536 10.079 84.982 9.02557 83.7904C6.914 81.4019 5.8335 78.2748 6.02009 75.0922C6.20668 71.9096 7.6452 68.9302 10.0214 66.8047C12.3976 64.6793 15.5184 63.5807 18.702 63.7488C21.8857 63.9169 24.8734 65.338 27.0126 67.7019ZM27.0126 67.7019L78.3512 23.4583L27.0126 67.7019Z" fill="#FEAE11"/>
<path d="M68.1687 44.1039H72.1908M88.2794 44.1039H92.3015M24.8743 23.9932C25.9416 22.814 26.7651 21.4353 27.2976 19.9366C27.8301 18.4379 28.0611 16.8488 27.9772 15.2605C27.8934 13.6722 27.4963 12.1162 26.809 10.6819C26.1216 9.24761 25.1575 7.96337 23.972 6.90303C22.7865 5.84268 21.4031 5.02717 19.9014 4.50338C18.3996 3.97959 16.8091 3.75786 15.2214 3.85095C13.6336 3.94403 12.0799 4.3501 10.6496 5.04579C9.21938 5.74148 7.94076 6.71307 6.88733 7.90467C4.77576 10.2932 3.69526 13.4203 3.88185 16.6029C4.06844 19.7855 5.50696 22.7649 7.88317 24.8903C10.2594 27.0158 13.3802 28.1144 16.5638 27.9463C19.7474 27.7782 22.7352 26.3571 24.8743 23.9932ZM24.8743 23.9932L76.2129 68.2368M24.8743 64.2146C25.9416 65.3939 26.7651 66.7726 27.2976 68.2712C27.8301 69.7699 28.0611 71.3591 27.9772 72.9474C27.8934 74.5357 27.4963 76.0917 26.809 77.526C26.1216 78.9603 25.1575 80.2445 23.972 81.3049C22.7865 82.3652 21.4031 83.1807 19.9014 83.7045C18.3996 84.2283 16.8091 84.45 15.2214 84.3569C13.6336 84.2638 12.0799 83.8578 10.6496 83.1621C9.21938 82.4664 7.94076 81.4948 6.88733 80.3032C4.77576 77.9147 3.69526 74.7876 3.88185 71.605C4.06844 68.4224 5.50696 65.4429 7.88317 63.3175C10.2594 61.1921 13.3802 60.0935 16.5638 60.2616C19.7474 60.4296 22.7352 61.8508 24.8743 64.2146ZM24.8743 64.2146L76.2129 19.9711" stroke="#111111" stroke-width="1.5" stroke-linecap="round" stroke-linejoin="round"/>
</svg>