<svg width="570" height="153" viewBox="0 0 570 153" fill="none" xmlns="http://www.w3.org/2000/svg">
<rect x="179.035" y="18.4246" width="389.678" height="134.075" stroke="#FEAE11" stroke-dasharray="10 10"/>
<rect width="541.908" height="145.958" rx="12" fill="white"/>
<path d="M81 45.7305C81.4297 45.7305 81.8281 45.8398 82.1953 46.0586C82.5703 46.2695 82.8711 46.5547 83.0977 46.9141C83.332 47.2734 83.4492 47.668 83.4492 48.0977C83.4492 48.5273 83.332 48.9258 83.0977 49.293C82.8711 49.6523 82.5703 49.9453 82.1953 50.1719C81.8281 50.3906 81.4297 50.5 81 50.5C80.5703 50.5 80.168 50.3906 79.793 50.1719C79.4258 49.9453 79.125 49.6523 78.8906 49.293C78.6641 48.9258 78.5508 48.5273 78.5508 48.0977C78.5508 47.668 78.6641 47.2734 78.8906 46.9141C79.125 46.5547 79.4258 46.2695 79.793 46.0586C80.168 45.8398 80.5703 45.7305 81 45.7305ZM114.34 49.2695C114.535 49.2695 114.719 49.3555 114.891 49.5273C115.07 49.6992 115.16 49.8789 115.16 50.0664C115.16 50.2617 115.133 50.4141 115.078 50.5234C114.703 51.3672 114.168 52.1484 113.473 52.8672C112.785 53.5859 111.965 54.1641 111.012 54.6016C110.059 55.0391 108.992 55.2578 107.812 55.2578C106.648 55.2578 105.594 55.043 104.648 54.6133C103.711 54.1836 102.906 53.5898 102.234 52.832C101.57 52.0664 101.059 51.1836 100.699 50.1836C100.348 49.1758 100.172 48.0938 100.172 46.9375C100.172 45.7969 100.352 44.7344 100.711 43.75C101.07 42.7578 101.586 41.8906 102.258 41.1484C102.93 40.3984 103.73 39.8125 104.66 39.3906C105.598 38.9688 106.637 38.7578 107.777 38.7578C108.934 38.7578 109.984 38.9609 110.93 39.3672C111.883 39.7734 112.707 40.3164 113.402 40.9961C114.105 41.6758 114.652 42.4297 115.043 43.2578C115.105 43.3828 115.137 43.5156 115.137 43.6562C115.137 43.8828 115.055 44.0859 114.891 44.2656C114.734 44.4375 114.57 44.5234 114.398 44.5234C113.93 44.5234 113.617 44.3516 113.461 44.0078C113 43.0312 112.277 42.207 111.293 41.5352C110.309 40.8555 109.137 40.5156 107.777 40.5156C106.574 40.5156 105.535 40.8047 104.66 41.3828C103.785 41.9609 103.109 42.7383 102.633 43.7148C102.164 44.6836 101.93 45.7695 101.93 46.9727C101.93 48.1758 102.164 49.2734 102.633 50.2656C103.102 51.25 103.773 52.0352 104.648 52.6211C105.531 53.1992 106.578 53.4883 107.789 53.4883C108.695 53.4883 109.52 53.3203 110.262 52.9844C111.012 52.6406 111.66 52.1875 112.207 51.625C112.762 51.0625 113.184 50.457 113.473 49.8086C113.629 49.4492 113.918 49.2695 114.34 49.2695ZM123.363 42.9766C124.184 42.9766 124.949 43.1406 125.66 43.4688C126.371 43.7969 126.992 44.25 127.523 44.8281C128.062 45.3984 128.48 46.0508 128.777 46.7852C129.082 47.5195 129.234 48.2969 129.234 49.1172C129.234 50.2031 128.977 51.2109 128.461 52.1406C127.945 53.0703 127.246 53.8242 126.363 54.4023C125.488 54.9727 124.504 55.2617 123.41 55.2695C122.301 55.2695 121.301 54.9844 120.41 54.4141C119.52 53.8438 118.812 53.0938 118.289 52.1641C117.773 51.2266 117.516 50.2109 117.516 49.1172C117.516 48.3047 117.664 47.5312 117.961 46.7969C118.266 46.0547 118.684 45.3984 119.215 44.8281C119.746 44.25 120.363 43.7969 121.066 43.4688C121.777 43.1406 122.543 42.9766 123.363 42.9766ZM123.363 44.7344C122.598 44.7344 121.906 44.9375 121.289 45.3438C120.672 45.75 120.18 46.2852 119.812 46.9492C119.453 47.6055 119.273 48.3203 119.273 49.0938C119.273 49.875 119.453 50.6016 119.812 51.2734C120.172 51.9453 120.664 52.4883 121.289 52.9023C121.914 53.3086 122.617 53.5117 123.398 53.5117C124.172 53.5039 124.863 53.2969 125.473 52.8906C126.09 52.4766 126.578 51.9375 126.938 51.2734C127.297 50.6094 127.477 49.8906 127.477 49.1172C127.477 48.3438 127.293 47.625 126.926 46.9609C126.566 46.2891 126.074 45.75 125.449 45.3438C124.832 44.9375 124.137 44.7344 123.363 44.7344ZM132.691 42.9648C132.934 42.9648 133.129 43.0508 133.277 43.2227C133.434 43.3945 133.512 43.6016 133.512 43.8438L133.57 45.2383C133.852 44.8945 134.176 44.5508 134.543 44.207C134.918 43.8633 135.344 43.5781 135.82 43.3516C136.305 43.1172 136.844 43 137.438 43C138.477 43 139.309 43.2656 139.934 43.7969C140.566 44.3281 141.023 45.0273 141.305 45.8945C141.594 46.7539 141.738 47.6836 141.738 48.6836L141.727 54.3672C141.727 54.6094 141.641 54.8164 141.469 54.9883C141.297 55.1602 141.09 55.2461 140.848 55.2461C140.605 55.2461 140.398 55.1602 140.227 54.9883C140.055 54.8086 139.969 54.5977 139.969 54.3555L139.98 48.6836C139.98 47.9883 139.91 47.3438 139.77 46.75C139.629 46.1562 139.375 45.6758 139.008 45.3086C138.641 44.9414 138.117 44.7578 137.438 44.7578C136.164 44.7578 135.203 45.0977 134.555 45.7773C133.906 46.457 133.582 47.4141 133.582 48.6484V54.3906C133.582 54.6328 133.496 54.8398 133.324 55.0117C133.152 55.1836 132.945 55.2695 132.703 55.2695C132.461 55.2695 132.254 55.1797 132.082 55C131.91 54.8281 131.824 54.6211 131.824 54.3789L131.812 43.8555C131.812 43.6055 131.895 43.3945 132.059 43.2227C132.23 43.0508 132.441 42.9648 132.691 42.9648ZM150.117 42.9297C151.164 42.9297 152.117 43.1562 152.977 43.6094C153.844 44.0625 154.484 44.6797 154.898 45.4609C154.969 45.5859 155.004 45.7227 155.004 45.8711C155.004 46.1055 154.918 46.3047 154.746 46.4688C154.582 46.6328 154.383 46.7148 154.148 46.7148C154.008 46.7148 153.863 46.6719 153.715 46.5859C153.566 46.4922 153.461 46.3828 153.398 46.2578C153.117 45.7266 152.688 45.3242 152.109 45.0508C151.539 44.7695 150.871 44.6289 150.105 44.6289C149.621 44.6289 149.094 44.6953 148.523 44.8281C147.953 44.9531 147.461 45.1641 147.047 45.4609C146.641 45.75 146.438 46.1406 146.438 46.6328C146.438 47.0156 146.602 47.3125 146.93 47.5234C147.258 47.7344 147.664 47.8906 148.148 47.9922C148.641 48.0859 149.137 48.1523 149.637 48.1914C150.145 48.2305 150.578 48.2695 150.938 48.3086C151.648 48.3789 152.348 48.5078 153.035 48.6953C153.723 48.8828 154.293 49.1914 154.746 49.6211C155.199 50.0508 155.426 50.6719 155.426 51.4844C155.426 52.3594 155.168 53.0781 154.652 53.6406C154.137 54.1953 153.477 54.6055 152.672 54.8711C151.867 55.1289 151.031 55.2578 150.164 55.2578C148.945 55.2578 147.84 55.0234 146.848 54.5547C145.855 54.0781 145.125 53.3828 144.656 52.4688C144.594 52.3594 144.562 52.2266 144.562 52.0703C144.562 51.8359 144.645 51.6367 144.809 51.4727C144.973 51.3086 145.172 51.2266 145.406 51.2266C145.555 51.2266 145.703 51.2734 145.852 51.3672C146 51.4531 146.105 51.5625 146.168 51.6953C146.504 52.3359 147.02 52.8086 147.715 53.1133C148.41 53.4102 149.227 53.5586 150.164 53.5586C150.703 53.5586 151.246 53.4961 151.793 53.3711C152.348 53.2383 152.809 53.0195 153.176 52.7148C153.551 52.4102 153.738 52 153.738 51.4844C153.738 51.0781 153.57 50.7695 153.234 50.5586C152.898 50.3398 152.477 50.1836 151.969 50.0898C151.461 49.9961 150.945 49.9336 150.422 49.9023C149.906 49.8711 149.461 49.832 149.086 49.7852C148.422 49.707 147.754 49.5742 147.082 49.3867C146.418 49.1914 145.863 48.8789 145.418 48.4492C144.973 48.0195 144.75 47.4141 144.75 46.6328C144.75 45.9766 144.91 45.418 145.23 44.957C145.559 44.4883 145.984 44.1055 146.508 43.8086C147.039 43.5039 147.621 43.2812 148.254 43.1406C148.887 43 149.508 42.9297 150.117 42.9297ZM167.297 55.3047C167.055 55.3047 166.855 55.2188 166.699 55.0469C166.551 54.875 166.477 54.668 166.477 54.4258L166.418 53.0312C166.145 53.3672 165.82 53.7109 165.445 54.0625C165.07 54.4062 164.645 54.6953 164.168 54.9297C163.691 55.1562 163.152 55.2695 162.551 55.2695C161.52 55.2695 160.688 55.0039 160.055 54.4727C159.422 53.9414 158.961 53.2422 158.672 52.375C158.391 51.5078 158.25 50.5781 158.25 49.5859L158.262 43.9023C158.262 43.6602 158.348 43.4531 158.52 43.2812C158.691 43.1094 158.898 43.0234 159.141 43.0234C159.391 43.0234 159.598 43.1094 159.762 43.2812C159.934 43.4531 160.02 43.6641 160.02 43.9141L160.008 49.5859C160.008 50.2734 160.078 50.918 160.219 51.5195C160.359 52.1133 160.613 52.5938 160.98 52.9609C161.355 53.3281 161.879 53.5117 162.551 53.5117C163.824 53.5117 164.785 53.1719 165.434 52.4922C166.082 51.8125 166.406 50.8555 166.406 49.6211V43.8789C166.406 43.6367 166.492 43.4297 166.664 43.2578C166.836 43.0859 167.043 43 167.285 43C167.535 43 167.742 43.0859 167.906 43.2578C168.078 43.4297 168.164 43.6406 168.164 43.8906L168.176 54.4141C168.176 54.6562 168.09 54.8633 167.918 55.0352C167.754 55.2148 167.547 55.3047 167.297 55.3047ZM171.82 38.7812C172.109 38.7812 172.336 38.8789 172.5 39.0742C172.672 39.2617 172.758 39.4609 172.758 39.6719V54.5547C172.758 54.7578 172.664 54.9336 172.477 55.082C172.297 55.2305 172.121 55.3047 171.949 55.3047C171.684 55.3047 171.457 55.2227 171.27 55.0586C171.09 54.8945 171 54.6836 171 54.4258V39.6953C171 39.4688 171.082 39.2617 171.246 39.0742C171.41 38.8789 171.602 38.7812 171.82 38.7812ZM177.387 40.5391C177.387 40.2969 177.473 40.0898 177.645 39.918C177.816 39.7461 178.023 39.6602 178.266 39.6602C178.508 39.6602 178.715 39.7461 178.887 39.918C179.059 40.0898 179.145 40.2969 179.145 40.5391L179.133 43.1641L181.418 43.1758C181.645 43.1758 181.836 43.2578 181.992 43.4219C182.156 43.5781 182.238 43.7695 182.238 43.9961C182.238 44.2227 182.156 44.418 181.992 44.582C181.836 44.7383 181.645 44.8164 181.418 44.8164L179.133 44.8047L179.121 52.1172C179.121 52.5312 179.184 52.8672 179.309 53.125C179.434 53.375 179.688 53.5 180.07 53.5C180.414 53.5 180.695 53.4375 180.914 53.3125C181.141 53.1797 181.398 53.1133 181.688 53.1133C181.93 53.1133 182.137 53.1992 182.309 53.3711C182.48 53.543 182.566 53.75 182.566 53.9922C182.566 54.3203 182.426 54.5781 182.145 54.7656C181.863 54.9531 181.531 55.082 181.148 55.1523C180.773 55.2305 180.438 55.2695 180.141 55.2695C179.219 55.2695 178.523 54.9766 178.055 54.3906C177.594 53.7969 177.363 53.0312 177.363 52.0938L177.375 44.8164H175.57C175.344 44.8164 175.148 44.7383 174.984 44.582C174.828 44.418 174.75 44.2227 174.75 43.9961C174.75 43.7695 174.828 43.5781 174.984 43.4219C175.148 43.2578 175.344 43.1758 175.57 43.1758H177.375L177.387 40.5391ZM190.184 42.9766C191.004 42.9766 191.77 43.1406 192.48 43.4688C193.191 43.7969 193.812 44.25 194.344 44.8281C194.883 45.3984 195.301 46.0508 195.598 46.7852C195.902 47.5195 196.055 48.2969 196.055 49.1172C196.055 50.2031 195.797 51.2109 195.281 52.1406C194.766 53.0703 194.066 53.8242 193.184 54.4023C192.309 54.9727 191.324 55.2617 190.23 55.2695C189.121 55.2695 188.121 54.9844 187.23 54.4141C186.34 53.8438 185.633 53.0938 185.109 52.1641C184.594 51.2266 184.336 50.2109 184.336 49.1172C184.336 48.3047 184.484 47.5312 184.781 46.7969C185.086 46.0547 185.504 45.3984 186.035 44.8281C186.566 44.25 187.184 43.7969 187.887 43.4688C188.598 43.1406 189.363 42.9766 190.184 42.9766ZM190.184 44.7344C189.418 44.7344 188.727 44.9375 188.109 45.3438C187.492 45.75 187 46.2852 186.633 46.9492C186.273 47.6055 186.094 48.3203 186.094 49.0938C186.094 49.875 186.273 50.6016 186.633 51.2734C186.992 51.9453 187.484 52.4883 188.109 52.9023C188.734 53.3086 189.438 53.5117 190.219 53.5117C190.992 53.5039 191.684 53.2969 192.293 52.8906C192.91 52.4766 193.398 51.9375 193.758 51.2734C194.117 50.6094 194.297 49.8906 194.297 49.1172C194.297 48.3438 194.113 47.625 193.746 46.9609C193.387 46.2891 192.895 45.75 192.27 45.3438C191.652 44.9375 190.957 44.7344 190.184 44.7344ZM205.535 44.1133C205.535 44.3242 205.465 44.5195 205.324 44.6992C205.184 44.8789 205.031 44.9688 204.867 44.9688C204.625 44.9688 204.395 44.9141 204.176 44.8047C203.965 44.6875 203.707 44.6289 203.402 44.6289C202.637 44.6289 202.035 44.793 201.598 45.1211C201.16 45.4492 200.848 45.8711 200.66 46.3867C200.48 46.8945 200.391 47.4336 200.391 48.0039V54.3906C200.391 54.6328 200.316 54.8398 200.168 55.0117C200.027 55.1914 199.809 55.2812 199.512 55.2812C199.223 55.2812 199.004 55.1914 198.855 55.0117C198.707 54.8398 198.633 54.6328 198.633 54.3906V43.9961C198.633 43.707 198.727 43.4727 198.914 43.293C199.109 43.1133 199.316 43.0234 199.535 43.0234C199.762 43.0234 199.945 43.1133 200.086 43.293C200.234 43.4648 200.309 43.6992 200.309 43.9961L200.414 45.2852C200.523 44.9258 200.727 44.5703 201.023 44.2188C201.328 43.8672 201.684 43.5742 202.09 43.3398C202.504 43.0977 202.922 42.9766 203.344 42.9766C203.945 42.9766 204.461 43.0586 204.891 43.2227C205.32 43.3789 205.535 43.6758 205.535 44.1133ZM208.102 41.207C207.766 41.207 207.469 41.0859 207.211 40.8438C206.961 40.6016 206.836 40.3086 206.836 39.9648C206.836 39.6211 206.961 39.3281 207.211 39.0859C207.469 38.8438 207.766 38.7227 208.102 38.7227C208.445 38.7227 208.742 38.8438 208.992 39.0859C209.242 39.3281 209.367 39.6211 209.367 39.9648C209.367 40.3086 209.242 40.6016 208.992 40.8438C208.742 41.0859 208.445 41.207 208.102 41.207ZM207.246 43.75C207.246 43.5469 207.34 43.3711 207.527 43.2227C207.715 43.0664 207.891 42.9883 208.055 42.9883C208.328 42.9883 208.555 43.0703 208.734 43.2344C208.914 43.3984 209.004 43.6133 209.004 43.8789L209.027 54.3906C209.027 54.6328 208.941 54.8398 208.77 55.0117C208.598 55.1836 208.391 55.2695 208.148 55.2695C207.906 55.2695 207.699 55.1797 207.527 55C207.355 54.8281 207.27 54.6211 207.27 54.3789L207.246 43.75ZM217.676 42.9883C218.512 42.9883 219.262 43.2305 219.926 43.7148C220.598 44.1992 221.184 44.7109 221.684 45.25L221.789 43.7734C221.789 43.5469 221.852 43.3555 221.977 43.1992C222.102 43.0352 222.277 42.9531 222.504 42.9531C222.73 42.9531 222.922 43.0352 223.078 43.1992C223.242 43.3555 223.324 43.5469 223.324 43.7734V54.3672C223.324 54.5938 223.242 54.7891 223.078 54.9531C222.922 55.1094 222.73 55.1875 222.504 55.1875C222.277 55.1875 222.082 55.1094 221.918 54.9531C221.762 54.7891 221.684 54.5938 221.684 54.3672V53.0312C221.168 53.5938 220.555 54.1016 219.844 54.5547C219.141 55.0078 218.398 55.2344 217.617 55.2344C216.812 55.2344 216.066 55.0703 215.379 54.7422C214.691 54.4062 214.09 53.9531 213.574 53.3828C213.059 52.8125 212.656 52.1641 212.367 51.4375C212.086 50.7031 211.945 49.9336 211.945 49.1289C211.945 48.332 212.086 47.5664 212.367 46.832C212.656 46.0898 213.059 45.4336 213.574 44.8633C214.098 44.2852 214.707 43.8281 215.402 43.4922C216.098 43.1562 216.855 42.9883 217.676 42.9883ZM221.742 49.0586C221.742 48.3008 221.559 47.5977 221.191 46.9492C220.832 46.293 220.344 45.7617 219.727 45.3555C219.117 44.9492 218.438 44.7461 217.688 44.7461C216.93 44.7461 216.25 44.9531 215.648 45.3672C215.047 45.7812 214.57 46.3242 214.219 46.9961C213.875 47.6602 213.703 48.3711 213.703 49.1289C213.703 49.8789 213.875 50.5859 214.219 51.25C214.562 51.9141 215.027 52.4531 215.613 52.8672C216.207 53.2734 216.875 53.4766 217.617 53.4766C218.367 53.4766 219.055 53.2695 219.68 52.8555C220.305 52.4336 220.805 51.8867 221.18 51.2148C221.555 50.5352 221.742 49.8164 221.742 49.0586ZM237.234 55.2461C236.172 55.2461 235.23 54.9648 234.41 54.4023C233.59 53.8398 232.945 53.1016 232.477 52.1875C232.008 51.2656 231.773 50.2773 231.773 49.2227C231.773 48.4258 231.91 47.6562 232.184 46.9141C232.457 46.1719 232.844 45.5117 233.344 44.9336C233.844 44.3477 234.434 43.8828 235.113 43.5391C235.793 43.1953 236.535 43.0234 237.34 43.0234C238.105 43.0234 238.805 43.2148 239.438 43.5977C240.07 43.9805 240.625 44.4219 241.102 44.9219V39.625C241.102 39.3828 241.188 39.1758 241.359 39.0039C241.531 38.832 241.738 38.7461 241.98 38.7461C242.23 38.7461 242.438 38.832 242.602 39.0039C242.773 39.1758 242.859 39.3828 242.859 39.625V54.3789C242.859 54.6211 242.773 54.8281 242.602 55C242.43 55.1719 242.223 55.2578 241.98 55.2578C241.738 55.2578 241.539 55.1719 241.383 55C241.234 54.8281 241.16 54.6211 241.16 54.3789L241.102 53.2539C240.656 53.707 240.105 54.1523 239.449 54.5898C238.793 55.0273 238.055 55.2461 237.234 55.2461ZM237.27 53.4883C238.066 53.4883 238.75 53.2734 239.32 52.8438C239.891 52.4141 240.328 51.8594 240.633 51.1797C240.938 50.5 241.09 49.793 241.09 49.0586C241.09 48.3242 240.938 47.6328 240.633 46.9844C240.336 46.3359 239.906 45.8086 239.344 45.4023C238.781 44.9883 238.105 44.7812 237.316 44.7812C236.559 44.7812 235.898 45 235.336 45.4375C234.773 45.8672 234.336 46.4258 234.023 47.1133C233.711 47.793 233.555 48.5078 233.555 49.2578C233.555 50 233.707 50.6953 234.012 51.3438C234.324 51.9844 234.758 52.5039 235.312 52.9023C235.875 53.293 236.527 53.4883 237.27 53.4883ZM251.508 55.2344C250.375 55.2344 249.348 54.9531 248.426 54.3906C247.512 53.8281 246.785 53.0781 246.246 52.1406C245.707 51.1953 245.438 50.1602 245.438 49.0352C245.438 47.9648 245.691 46.9766 246.199 46.0703C246.715 45.1562 247.41 44.4219 248.285 43.8672C249.16 43.3125 250.137 43.0352 251.215 43.0352C252.207 43.0352 253.117 43.2812 253.945 43.7734C254.781 44.2656 255.449 44.9297 255.949 45.7656C256.457 46.5938 256.711 47.5156 256.711 48.5312C256.711 48.8906 256.645 49.1992 256.512 49.457C256.387 49.7148 256.152 49.8438 255.809 49.8438H247.277C247.402 50.4922 247.656 51.0938 248.039 51.6484C248.43 52.1953 248.918 52.6367 249.504 52.9727C250.098 53.3086 250.758 53.4766 251.484 53.4766C252.102 53.4766 252.707 53.3398 253.301 53.0664C253.895 52.793 254.383 52.418 254.766 51.9414C254.938 51.7148 255.168 51.6016 255.457 51.6016C255.699 51.6016 255.906 51.6875 256.078 51.8594C256.25 52.0312 256.336 52.2383 256.336 52.4805C256.336 52.6914 256.266 52.8828 256.125 53.0547C255.562 53.7422 254.871 54.2773 254.051 54.6602C253.238 55.043 252.391 55.2344 251.508 55.2344ZM254.918 48.1094C254.848 47.5 254.641 46.9453 254.297 46.4453C253.953 45.9375 253.516 45.5352 252.984 45.2383C252.453 44.9414 251.867 44.793 251.227 44.793C250.562 44.793 249.957 44.9453 249.41 45.25C248.863 45.5547 248.406 45.957 248.039 46.457C247.68 46.957 247.434 47.5078 247.301 48.1094H254.918ZM270.703 42.9297C271.75 42.9297 272.703 43.1562 273.562 43.6094C274.43 44.0625 275.07 44.6797 275.484 45.4609C275.555 45.5859 275.59 45.7227 275.59 45.8711C275.59 46.1055 275.504 46.3047 275.332 46.4688C275.168 46.6328 274.969 46.7148 274.734 46.7148C274.594 46.7148 274.449 46.6719 274.301 46.5859C274.152 46.4922 274.047 46.3828 273.984 46.2578C273.703 45.7266 273.273 45.3242 272.695 45.0508C272.125 44.7695 271.457 44.6289 270.691 44.6289C270.207 44.6289 269.68 44.6953 269.109 44.8281C268.539 44.9531 268.047 45.1641 267.633 45.4609C267.227 45.75 267.023 46.1406 267.023 46.6328C267.023 47.0156 267.188 47.3125 267.516 47.5234C267.844 47.7344 268.25 47.8906 268.734 47.9922C269.227 48.0859 269.723 48.1523 270.223 48.1914C270.73 48.2305 271.164 48.2695 271.523 48.3086C272.234 48.3789 272.934 48.5078 273.621 48.6953C274.309 48.8828 274.879 49.1914 275.332 49.6211C275.785 50.0508 276.012 50.6719 276.012 51.4844C276.012 52.3594 275.754 53.0781 275.238 53.6406C274.723 54.1953 274.062 54.6055 273.258 54.8711C272.453 55.1289 271.617 55.2578 270.75 55.2578C269.531 55.2578 268.426 55.0234 267.434 54.5547C266.441 54.0781 265.711 53.3828 265.242 52.4688C265.18 52.3594 265.148 52.2266 265.148 52.0703C265.148 51.8359 265.23 51.6367 265.395 51.4727C265.559 51.3086 265.758 51.2266 265.992 51.2266C266.141 51.2266 266.289 51.2734 266.438 51.3672C266.586 51.4531 266.691 51.5625 266.754 51.6953C267.09 52.3359 267.605 52.8086 268.301 53.1133C268.996 53.4102 269.812 53.5586 270.75 53.5586C271.289 53.5586 271.832 53.4961 272.379 53.3711C272.934 53.2383 273.395 53.0195 273.762 52.7148C274.137 52.4102 274.324 52 274.324 51.4844C274.324 51.0781 274.156 50.7695 273.82 50.5586C273.484 50.3398 273.062 50.1836 272.555 50.0898C272.047 49.9961 271.531 49.9336 271.008 49.9023C270.492 49.8711 270.047 49.832 269.672 49.7852C269.008 49.707 268.34 49.5742 267.668 49.3867C267.004 49.1914 266.449 48.8789 266.004 48.4492C265.559 48.0195 265.336 47.4141 265.336 46.6328C265.336 45.9766 265.496 45.418 265.816 44.957C266.145 44.4883 266.57 44.1055 267.094 43.8086C267.625 43.5039 268.207 43.2812 268.84 43.1406C269.473 43 270.094 42.9297 270.703 42.9297ZM287.883 55.3047C287.641 55.3047 287.441 55.2188 287.285 55.0469C287.137 54.875 287.062 54.668 287.062 54.4258L287.004 53.0312C286.73 53.3672 286.406 53.7109 286.031 54.0625C285.656 54.4062 285.23 54.6953 284.754 54.9297C284.277 55.1562 283.738 55.2695 283.137 55.2695C282.105 55.2695 281.273 55.0039 280.641 54.4727C280.008 53.9414 279.547 53.2422 279.258 52.375C278.977 51.5078 278.836 50.5781 278.836 49.5859L278.848 43.9023C278.848 43.6602 278.934 43.4531 279.105 43.2812C279.277 43.1094 279.484 43.0234 279.727 43.0234C279.977 43.0234 280.184 43.1094 280.348 43.2812C280.52 43.4531 280.605 43.6641 280.605 43.9141L280.594 49.5859C280.594 50.2734 280.664 50.918 280.805 51.5195C280.945 52.1133 281.199 52.5938 281.566 52.9609C281.941 53.3281 282.465 53.5117 283.137 53.5117C284.41 53.5117 285.371 53.1719 286.02 52.4922C286.668 51.8125 286.992 50.8555 286.992 49.6211V43.8789C286.992 43.6367 287.078 43.4297 287.25 43.2578C287.422 43.0859 287.629 43 287.871 43C288.121 43 288.328 43.0859 288.492 43.2578C288.664 43.4297 288.75 43.6406 288.75 43.8906L288.762 54.4141C288.762 54.6562 288.676 54.8633 288.504 55.0352C288.34 55.2148 288.133 55.3047 287.883 55.3047ZM297.082 42.9883C297.918 42.9883 298.668 43.2305 299.332 43.7148C300.004 44.1992 300.59 44.7109 301.09 45.25L301.195 43.7734C301.195 43.5469 301.258 43.3555 301.383 43.1992C301.508 43.0352 301.684 42.9531 301.91 42.9531C302.137 42.9531 302.328 43.0352 302.484 43.1992C302.648 43.3555 302.73 43.5469 302.73 43.7734V54.3672C302.73 54.5938 302.648 54.7891 302.484 54.9531C302.328 55.1094 302.137 55.1875 301.91 55.1875C301.684 55.1875 301.488 55.1094 301.324 54.9531C301.168 54.7891 301.09 54.5938 301.09 54.3672V53.0312C300.574 53.5938 299.961 54.1016 299.25 54.5547C298.547 55.0078 297.805 55.2344 297.023 55.2344C296.219 55.2344 295.473 55.0703 294.785 54.7422C294.098 54.4062 293.496 53.9531 292.98 53.3828C292.465 52.8125 292.062 52.1641 291.773 51.4375C291.492 50.7031 291.352 49.9336 291.352 49.1289C291.352 48.332 291.492 47.5664 291.773 46.832C292.062 46.0898 292.465 45.4336 292.98 44.8633C293.504 44.2852 294.113 43.8281 294.809 43.4922C295.504 43.1562 296.262 42.9883 297.082 42.9883ZM301.148 49.0586C301.148 48.3008 300.965 47.5977 300.598 46.9492C300.238 46.293 299.75 45.7617 299.133 45.3555C298.523 44.9492 297.844 44.7461 297.094 44.7461C296.336 44.7461 295.656 44.9531 295.055 45.3672C294.453 45.7812 293.977 46.3242 293.625 46.9961C293.281 47.6602 293.109 48.3711 293.109 49.1289C293.109 49.8789 293.281 50.5859 293.625 51.25C293.969 51.9141 294.434 52.4531 295.02 52.8672C295.613 53.2734 296.281 53.4766 297.023 53.4766C297.773 53.4766 298.461 53.2695 299.086 52.8555C299.711 52.4336 300.211 51.8867 300.586 51.2148C300.961 50.5352 301.148 49.8164 301.148 49.0586ZM311.18 49.1055C311.18 48.0195 311.438 47.0195 311.953 46.1055C312.469 45.1836 313.164 44.4414 314.039 43.8789C314.914 43.3164 315.891 43.0352 316.969 43.0352C317.766 43.0352 318.492 43.1836 319.148 43.4805C319.805 43.7773 320.371 44.168 320.848 44.6523C321.324 45.1367 321.691 45.668 321.949 46.2461C322.012 46.3711 322.043 46.4961 322.043 46.6211C322.043 46.8633 321.957 47.0703 321.785 47.2422C321.613 47.4062 321.406 47.4883 321.164 47.4883C321.008 47.4883 320.852 47.4414 320.695 47.3477C320.539 47.2461 320.43 47.1211 320.367 46.9727C320.102 46.3867 319.672 45.875 319.078 45.4375C318.484 45 317.781 44.7812 316.969 44.7812C316.211 44.7812 315.527 44.9844 314.918 45.3906C314.309 45.7891 313.824 46.3203 313.465 46.9844C313.105 47.6406 312.926 48.3516 312.926 49.1172C312.926 49.8828 313.102 50.5977 313.453 51.2617C313.812 51.918 314.297 52.4492 314.906 52.8555C315.523 53.2539 316.211 53.4531 316.969 53.4531C317.781 53.4531 318.484 53.2383 319.078 52.8086C319.68 52.3711 320.113 51.8594 320.379 51.2734C320.441 51.125 320.551 51 320.707 50.8984C320.863 50.7969 321.02 50.7461 321.176 50.7461C321.418 50.7461 321.625 50.832 321.797 51.0039C321.969 51.1758 322.055 51.3828 322.055 51.625C322.055 51.7578 322.027 51.8789 321.973 51.9883C321.715 52.5586 321.344 53.0898 320.859 53.582C320.383 54.0664 319.812 54.457 319.148 54.7539C318.492 55.0508 317.766 55.1992 316.969 55.1992C315.883 55.1992 314.902 54.918 314.027 54.3555C313.152 53.793 312.457 53.0508 311.941 52.1289C311.434 51.1992 311.18 50.1914 311.18 49.1055ZM330.246 42.9766C331.066 42.9766 331.832 43.1406 332.543 43.4688C333.254 43.7969 333.875 44.25 334.406 44.8281C334.945 45.3984 335.363 46.0508 335.66 46.7852C335.965 47.5195 336.117 48.2969 336.117 49.1172C336.117 50.2031 335.859 51.2109 335.344 52.1406C334.828 53.0703 334.129 53.8242 333.246 54.4023C332.371 54.9727 331.387 55.2617 330.293 55.2695C329.184 55.2695 328.184 54.9844 327.293 54.4141C326.402 53.8438 325.695 53.0938 325.172 52.1641C324.656 51.2266 324.398 50.2109 324.398 49.1172C324.398 48.3047 324.547 47.5312 324.844 46.7969C325.148 46.0547 325.566 45.3984 326.098 44.8281C326.629 44.25 327.246 43.7969 327.949 43.4688C328.66 43.1406 329.426 42.9766 330.246 42.9766ZM330.246 44.7344C329.48 44.7344 328.789 44.9375 328.172 45.3438C327.555 45.75 327.062 46.2852 326.695 46.9492C326.336 47.6055 326.156 48.3203 326.156 49.0938C326.156 49.875 326.336 50.6016 326.695 51.2734C327.055 51.9453 327.547 52.4883 328.172 52.9023C328.797 53.3086 329.5 53.5117 330.281 53.5117C331.055 53.5039 331.746 53.2969 332.355 52.8906C332.973 52.4766 333.461 51.9375 333.82 51.2734C334.18 50.6094 334.359 49.8906 334.359 49.1172C334.359 48.3438 334.176 47.625 333.809 46.9609C333.449 46.2891 332.957 45.75 332.332 45.3438C331.715 44.9375 331.02 44.7344 330.246 44.7344ZM339.574 42.9648C339.816 42.9648 340.012 43.0508 340.16 43.2227C340.316 43.3945 340.395 43.6016 340.395 43.8438L340.453 45.2383C340.734 44.8945 341.059 44.5508 341.426 44.207C341.801 43.8633 342.227 43.5781 342.703 43.3516C343.188 43.1172 343.727 43 344.32 43C345.359 43 346.191 43.2656 346.816 43.7969C347.449 44.3281 347.906 45.0273 348.188 45.8945C348.477 46.7539 348.621 47.6836 348.621 48.6836L348.609 54.3672C348.609 54.6094 348.523 54.8164 348.352 54.9883C348.18 55.1602 347.973 55.2461 347.73 55.2461C347.488 55.2461 347.281 55.1602 347.109 54.9883C346.938 54.8086 346.852 54.5977 346.852 54.3555L346.863 48.6836C346.863 47.9883 346.793 47.3438 346.652 46.75C346.512 46.1562 346.258 45.6758 345.891 45.3086C345.523 44.9414 345 44.7578 344.32 44.7578C343.047 44.7578 342.086 45.0977 341.438 45.7773C340.789 46.457 340.465 47.4141 340.465 48.6484V54.3906C340.465 54.6328 340.379 54.8398 340.207 55.0117C340.035 55.1836 339.828 55.2695 339.586 55.2695C339.344 55.2695 339.137 55.1797 338.965 55C338.793 54.8281 338.707 54.6211 338.707 54.3789L338.695 43.8555C338.695 43.6055 338.777 43.3945 338.941 43.2227C339.113 43.0508 339.324 42.9648 339.574 42.9648ZM357.352 40.7383C357.117 40.7383 356.906 40.6875 356.719 40.5859C356.531 40.4766 356.266 40.4258 355.922 40.4336C354.961 40.4414 354.484 41.1289 354.492 42.4961L354.504 43.3047H356.93C357.156 43.3047 357.348 43.3945 357.504 43.5742C357.668 43.7461 357.75 43.9453 357.75 44.1719C357.75 44.3438 357.672 44.5156 357.516 44.6875C357.359 44.8594 357.203 44.9453 357.047 44.9453H354.504L354.527 54.3906C354.527 54.6328 354.441 54.8398 354.27 55.0117C354.098 55.1836 353.891 55.2695 353.648 55.2695C353.406 55.2695 353.199 55.1797 353.027 55C352.855 54.8281 352.77 54.6211 352.77 54.3789L352.746 44.9453H351.117C350.875 44.9453 350.676 44.8672 350.52 44.7109C350.371 44.5469 350.297 44.3281 350.297 44.0547C350.297 43.8984 350.367 43.7422 350.508 43.5859C350.656 43.4219 350.805 43.3398 350.953 43.3398L352.746 43.3047V42.5781C352.746 41.3438 352.992 40.3945 353.484 39.7305C353.984 39.0664 354.824 38.7344 356.004 38.7344C356.207 38.7344 356.488 38.7656 356.848 38.8281C357.207 38.8906 357.535 39 357.832 39.1562C358.129 39.3047 358.277 39.5156 358.277 39.7891C358.277 40.0547 358.195 40.2812 358.031 40.4688C357.875 40.6484 357.648 40.7383 357.352 40.7383ZM364.945 55.2344C363.812 55.2344 362.785 54.9531 361.863 54.3906C360.949 53.8281 360.223 53.0781 359.684 52.1406C359.145 51.1953 358.875 50.1602 358.875 49.0352C358.875 47.9648 359.129 46.9766 359.637 46.0703C360.152 45.1562 360.848 44.4219 361.723 43.8672C362.598 43.3125 363.574 43.0352 364.652 43.0352C365.645 43.0352 366.555 43.2812 367.383 43.7734C368.219 44.2656 368.887 44.9297 369.387 45.7656C369.895 46.5938 370.148 47.5156 370.148 48.5312C370.148 48.8906 370.082 49.1992 369.949 49.457C369.824 49.7148 369.59 49.8438 369.246 49.8438H360.715C360.84 50.4922 361.094 51.0938 361.477 51.6484C361.867 52.1953 362.355 52.6367 362.941 52.9727C363.535 53.3086 364.195 53.4766 364.922 53.4766C365.539 53.4766 366.145 53.3398 366.738 53.0664C367.332 52.793 367.82 52.418 368.203 51.9414C368.375 51.7148 368.605 51.6016 368.895 51.6016C369.137 51.6016 369.344 51.6875 369.516 51.8594C369.688 52.0312 369.773 52.2383 369.773 52.4805C369.773 52.6914 369.703 52.8828 369.562 53.0547C369 53.7422 368.309 54.2773 367.488 54.6602C366.676 55.043 365.828 55.2344 364.945 55.2344ZM368.355 48.1094C368.285 47.5 368.078 46.9453 367.734 46.4453C367.391 45.9375 366.953 45.5352 366.422 45.2383C365.891 44.9414 365.305 44.793 364.664 44.793C364 44.793 363.395 44.9453 362.848 45.25C362.301 45.5547 361.844 45.957 361.477 46.457C361.117 46.957 360.871 47.5078 360.738 48.1094H368.355ZM372.492 49.1055C372.492 48.0195 372.75 47.0195 373.266 46.1055C373.781 45.1836 374.477 44.4414 375.352 43.8789C376.227 43.3164 377.203 43.0352 378.281 43.0352C379.078 43.0352 379.805 43.1836 380.461 43.4805C381.117 43.7773 381.684 44.168 382.16 44.6523C382.637 45.1367 383.004 45.668 383.262 46.2461C383.324 46.3711 383.355 46.4961 383.355 46.6211C383.355 46.8633 383.27 47.0703 383.098 47.2422C382.926 47.4062 382.719 47.4883 382.477 47.4883C382.32 47.4883 382.164 47.4414 382.008 47.3477C381.852 47.2461 381.742 47.1211 381.68 46.9727C381.414 46.3867 380.984 45.875 380.391 45.4375C379.797 45 379.094 44.7812 378.281 44.7812C377.523 44.7812 376.84 44.9844 376.23 45.3906C375.621 45.7891 375.137 46.3203 374.777 46.9844C374.418 47.6406 374.238 48.3516 374.238 49.1172C374.238 49.8828 374.414 50.5977 374.766 51.2617C375.125 51.918 375.609 52.4492 376.219 52.8555C376.836 53.2539 377.523 53.4531 378.281 53.4531C379.094 53.4531 379.797 53.2383 380.391 52.8086C380.992 52.3711 381.426 51.8594 381.691 51.2734C381.754 51.125 381.863 51 382.02 50.8984C382.176 50.7969 382.332 50.7461 382.488 50.7461C382.73 50.7461 382.938 50.832 383.109 51.0039C383.281 51.1758 383.367 51.3828 383.367 51.625C383.367 51.7578 383.34 51.8789 383.285 51.9883C383.027 52.5586 382.656 53.0898 382.172 53.582C381.695 54.0664 381.125 54.457 380.461 54.7539C379.805 55.0508 379.078 55.1992 378.281 55.1992C377.195 55.1992 376.215 54.918 375.34 54.3555C374.465 53.793 373.77 53.0508 373.254 52.1289C372.746 51.1992 372.492 50.1914 372.492 49.1055ZM394.066 60.9062C394.066 60.3203 393.848 59.8398 393.41 59.4648C392.973 59.0898 392.461 58.9023 391.875 58.9023C391.352 58.9023 390.891 59.0547 390.492 59.3594C390.328 59.4766 390.156 59.5352 389.977 59.5352C389.734 59.5352 389.527 59.4492 389.355 59.2773C389.184 59.1055 389.098 58.8984 389.098 58.6562C389.098 58.4688 389.145 58.3086 389.238 58.1758L391.137 55.2812C391.309 55.0078 391.555 54.8711 391.875 54.8711C392.117 54.8711 392.324 54.957 392.496 55.1289C392.668 55.3008 392.754 55.5078 392.754 55.75C392.754 55.9297 392.707 56.0938 392.613 56.2422L392.016 57.1445C392.766 57.168 393.43 57.3672 394.008 57.7422C394.586 58.1172 395.027 58.5664 395.332 59.0898C395.66 59.6523 395.824 60.2578 395.824 60.9062C395.824 61.5156 395.691 62.0625 395.426 62.5469C395.16 63.0391 394.812 63.4492 394.383 63.7773C393.961 64.1055 393.508 64.3438 393.023 64.4922C392.586 64.625 392.156 64.6914 391.734 64.6914C390.984 64.6914 390.336 64.543 389.789 64.2461C389.25 63.957 388.789 63.5938 388.406 63.1562C388.258 62.9766 388.184 62.7852 388.184 62.582C388.184 62.3398 388.27 62.1328 388.441 61.9609C388.613 61.7891 388.82 61.7031 389.062 61.7031C389.344 61.7031 389.57 61.8086 389.742 62.0195C389.969 62.2852 390.242 62.5039 390.562 62.6758C390.891 62.8477 391.281 62.9336 391.734 62.9336C392.359 62.9336 392.902 62.7422 393.363 62.3594C393.832 61.9844 394.066 61.5 394.066 60.9062ZM385.711 49.1055C385.711 48.0195 385.969 47.0195 386.484 46.1055C387 45.1836 387.695 44.4414 388.57 43.8789C389.445 43.3164 390.422 43.0352 391.5 43.0352C392.297 43.0352 393.023 43.1836 393.68 43.4805C394.336 43.7773 394.902 44.168 395.379 44.6523C395.855 45.1367 396.223 45.668 396.48 46.2461C396.543 46.3711 396.574 46.4961 396.574 46.6211C396.574 46.8633 396.488 47.0703 396.316 47.2422C396.145 47.4062 395.938 47.4883 395.695 47.4883C395.539 47.4883 395.383 47.4414 395.227 47.3477C395.07 47.2461 394.961 47.1211 394.898 46.9727C394.633 46.3867 394.203 45.875 393.609 45.4375C393.016 45 392.312 44.7812 391.5 44.7812C390.742 44.7812 390.059 44.9844 389.449 45.3906C388.84 45.7891 388.355 46.3203 387.996 46.9844C387.637 47.6406 387.457 48.3516 387.457 49.1172C387.457 49.8828 387.633 50.5977 387.984 51.2617C388.344 51.918 388.828 52.4492 389.438 52.8555C390.055 53.2539 390.742 53.4531 391.5 53.4531C392.312 53.4531 393.016 53.2383 393.609 52.8086C394.211 52.3711 394.645 51.8594 394.91 51.2734C394.973 51.125 395.082 51 395.238 50.8984C395.395 50.7969 395.551 50.7461 395.707 50.7461C395.949 50.7461 396.156 50.832 396.328 51.0039C396.5 51.1758 396.586 51.3828 396.586 51.625C396.586 51.7578 396.559 51.8789 396.504 51.9883C396.246 52.5586 395.875 53.0898 395.391 53.582C394.914 54.0664 394.344 54.457 393.68 54.7539C393.023 55.0508 392.297 55.1992 391.5 55.1992C390.414 55.1992 389.434 54.918 388.559 54.3555C387.684 53.793 386.988 53.0508 386.473 52.1289C385.965 51.1992 385.711 50.1914 385.711 49.1055ZM407.977 38.6875C407.977 38.6328 407.969 38.5859 407.953 38.5469C407.945 38.5 407.941 38.4492 407.941 38.3945C407.941 38.168 408.02 37.9766 408.176 37.8203C408.34 37.6562 408.535 37.5742 408.762 37.5742C409.059 37.5742 409.273 37.6875 409.406 37.9141C409.547 38.1328 409.617 38.4023 409.617 38.7227C409.617 39.1836 409.5 39.6055 409.266 39.9883C409.031 40.3711 408.723 40.6797 408.34 40.9141C407.957 41.1406 407.535 41.2539 407.074 41.2539C406.566 41.2539 406.137 41.1523 405.785 40.9492C405.434 40.7461 405.117 40.5117 404.836 40.2461C404.555 39.9727 404.262 39.7383 403.957 39.543C403.699 39.3711 403.465 39.2852 403.254 39.2852C402.988 39.2852 402.766 39.3789 402.586 39.5664C402.406 39.7461 402.316 39.9648 402.316 40.2227C402.316 40.2539 402.316 40.2852 402.316 40.3164C402.324 40.3398 402.328 40.3672 402.328 40.3984C402.328 40.625 402.246 40.8203 402.082 40.9844C401.926 41.1406 401.734 41.2188 401.508 41.2188C401.242 41.2188 401.035 41.1211 400.887 40.9258C400.746 40.7305 400.676 40.4883 400.676 40.1992C400.676 39.7383 400.789 39.3164 401.016 38.9336C401.25 38.543 401.562 38.2305 401.953 37.9961C402.344 37.7617 402.77 37.6445 403.23 37.6445C403.746 37.6445 404.18 37.75 404.531 37.9609C404.891 38.1641 405.211 38.4023 405.492 38.6758C405.781 38.9414 406.078 39.1719 406.383 39.3672C406.5 39.4453 406.609 39.5078 406.711 39.5547C406.812 39.5938 406.926 39.6133 407.051 39.6133C407.309 39.6133 407.527 39.5234 407.707 39.3438C407.887 39.1641 407.977 38.9453 407.977 38.6875ZM404.66 42.9883C405.496 42.9883 406.246 43.2305 406.91 43.7148C407.582 44.1992 408.168 44.7109 408.668 45.25L408.773 43.7734C408.773 43.5469 408.836 43.3555 408.961 43.1992C409.086 43.0352 409.262 42.9531 409.488 42.9531C409.715 42.9531 409.906 43.0352 410.062 43.1992C410.227 43.3555 410.309 43.5469 410.309 43.7734V54.3672C410.309 54.5938 410.227 54.7891 410.062 54.9531C409.906 55.1094 409.715 55.1875 409.488 55.1875C409.262 55.1875 409.066 55.1094 408.902 54.9531C408.746 54.7891 408.668 54.5938 408.668 54.3672V53.0312C408.152 53.5938 407.539 54.1016 406.828 54.5547C406.125 55.0078 405.383 55.2344 404.602 55.2344C403.797 55.2344 403.051 55.0703 402.363 54.7422C401.676 54.4062 401.074 53.9531 400.559 53.3828C400.043 52.8125 399.641 52.1641 399.352 51.4375C399.07 50.7031 398.93 49.9336 398.93 49.1289C398.93 48.332 399.07 47.5664 399.352 46.832C399.641 46.0898 400.043 45.4336 400.559 44.8633C401.082 44.2852 401.691 43.8281 402.387 43.4922C403.082 43.1562 403.84 42.9883 404.66 42.9883ZM408.727 49.0586C408.727 48.3008 408.543 47.5977 408.176 46.9492C407.816 46.293 407.328 45.7617 406.711 45.3555C406.102 44.9492 405.422 44.7461 404.672 44.7461C403.914 44.7461 403.234 44.9531 402.633 45.3672C402.031 45.7812 401.555 46.3242 401.203 46.9961C400.859 47.6602 400.688 48.3711 400.688 49.1289C400.688 49.8789 400.859 50.5859 401.203 51.25C401.547 51.9141 402.012 52.4531 402.598 52.8672C403.191 53.2734 403.859 53.4766 404.602 53.4766C405.352 53.4766 406.039 53.2695 406.664 52.8555C407.289 52.4336 407.789 51.8867 408.164 51.2148C408.539 50.5352 408.727 49.8164 408.727 49.0586ZM418.746 42.9766C419.566 42.9766 420.332 43.1406 421.043 43.4688C421.754 43.7969 422.375 44.25 422.906 44.8281C423.445 45.3984 423.863 46.0508 424.16 46.7852C424.465 47.5195 424.617 48.2969 424.617 49.1172C424.617 50.2031 424.359 51.2109 423.844 52.1406C423.328 53.0703 422.629 53.8242 421.746 54.4023C420.871 54.9727 419.887 55.2617 418.793 55.2695C417.684 55.2695 416.684 54.9844 415.793 54.4141C414.902 53.8438 414.195 53.0938 413.672 52.1641C413.156 51.2266 412.898 50.2109 412.898 49.1172C412.898 48.3047 413.047 47.5312 413.344 46.7969C413.648 46.0547 414.066 45.3984 414.598 44.8281C415.129 44.25 415.746 43.7969 416.449 43.4688C417.16 43.1406 417.926 42.9766 418.746 42.9766ZM418.746 44.7344C417.98 44.7344 417.289 44.9375 416.672 45.3438C416.055 45.75 415.562 46.2852 415.195 46.9492C414.836 47.6055 414.656 48.3203 414.656 49.0938C414.656 49.875 414.836 50.6016 415.195 51.2734C415.555 51.9453 416.047 52.4883 416.672 52.9023C417.297 53.3086 418 53.5117 418.781 53.5117C419.555 53.5039 420.246 53.2969 420.855 52.8906C421.473 52.4766 421.961 51.9375 422.32 51.2734C422.68 50.6094 422.859 49.8906 422.859 49.1172C422.859 48.3438 422.676 47.625 422.309 46.9609C421.949 46.2891 421.457 45.75 420.832 45.3438C420.215 44.9375 419.52 44.7344 418.746 44.7344ZM426.961 41.207C426.961 40.957 427.043 40.7422 427.207 40.5625C427.371 40.375 427.574 40.2812 427.816 40.2812C428.043 40.2812 428.234 40.3477 428.391 40.4805C429.195 41.1055 429.938 41.875 430.617 42.7891C431.305 43.6953 431.855 44.7266 432.27 45.8828C432.684 47.0312 432.891 48.2695 432.891 49.5977C432.891 50.9258 432.688 52.1641 432.281 53.3125C431.875 54.4609 431.336 55.4922 430.664 56.4062C429.992 57.3281 429.258 58.0977 428.461 58.7148C428.305 58.8477 428.113 58.9141 427.887 58.9141C427.645 58.9141 427.441 58.8242 427.277 58.6445C427.113 58.4648 427.031 58.25 427.031 58C427.031 57.7344 427.148 57.5117 427.383 57.332C428.047 56.8086 428.664 56.1562 429.234 55.375C429.805 54.5938 430.262 53.7188 430.605 52.75C430.957 51.7734 431.133 50.7266 431.133 49.6094C431.133 48.4922 430.953 47.4453 430.594 46.4688C430.242 45.4844 429.777 44.6016 429.199 43.8203C428.621 43.0391 427.996 42.3867 427.324 41.8633C427.082 41.6914 426.961 41.4727 426.961 41.207ZM81 71.7305C81.4297 71.7305 81.8281 71.8398 82.1953 72.0586C82.5703 72.2695 82.8711 72.5547 83.0977 72.9141C83.332 73.2734 83.4492 73.668 83.4492 74.0977C83.4492 74.5273 83.332 74.9258 83.0977 75.293C82.8711 75.6523 82.5703 75.9453 82.1953 76.1719C81.8281 76.3906 81.4297 76.5 81 76.5C80.5703 76.5 80.168 76.3906 79.793 76.1719C79.4258 75.9453 79.125 75.6523 78.8906 75.293C78.6641 74.9258 78.5508 74.5273 78.5508 74.0977C78.5508 73.668 78.6641 73.2734 78.8906 72.9141C79.125 72.5547 79.4258 72.2695 79.793 72.0586C80.168 71.8398 80.5703 71.7305 81 71.7305ZM114.34 75.2695C114.535 75.2695 114.719 75.3555 114.891 75.5273C115.07 75.6992 115.16 75.8789 115.16 76.0664C115.16 76.2617 115.133 76.4141 115.078 76.5234C114.703 77.3672 114.168 78.1484 113.473 78.8672C112.785 79.5859 111.965 80.1641 111.012 80.6016C110.059 81.0391 108.992 81.2578 107.812 81.2578C106.648 81.2578 105.594 81.043 104.648 80.6133C103.711 80.1836 102.906 79.5898 102.234 78.832C101.57 78.0664 101.059 77.1836 100.699 76.1836C100.348 75.1758 100.172 74.0938 100.172 72.9375C100.172 71.7969 100.352 70.7344 100.711 69.75C101.07 68.7578 101.586 67.8906 102.258 67.1484C102.93 66.3984 103.73 65.8125 104.66 65.3906C105.598 64.9688 106.637 64.7578 107.777 64.7578C108.934 64.7578 109.984 64.9609 110.93 65.3672C111.883 65.7734 112.707 66.3164 113.402 66.9961C114.105 67.6758 114.652 68.4297 115.043 69.2578C115.105 69.3828 115.137 69.5156 115.137 69.6562C115.137 69.8828 115.055 70.0859 114.891 70.2656C114.734 70.4375 114.57 70.5234 114.398 70.5234C113.93 70.5234 113.617 70.3516 113.461 70.0078C113 69.0312 112.277 68.207 111.293 67.5352C110.309 66.8555 109.137 66.5156 107.777 66.5156C106.574 66.5156 105.535 66.8047 104.66 67.3828C103.785 67.9609 103.109 68.7383 102.633 69.7148C102.164 70.6836 101.93 71.7695 101.93 72.9727C101.93 74.1758 102.164 75.2734 102.633 76.2656C103.102 77.25 103.773 78.0352 104.648 78.6211C105.531 79.1992 106.578 79.4883 107.789 79.4883C108.695 79.4883 109.52 79.3203 110.262 78.9844C111.012 78.6406 111.66 78.1875 112.207 77.625C112.762 77.0625 113.184 76.457 113.473 75.8086C113.629 75.4492 113.918 75.2695 114.34 75.2695ZM123.363 68.9766C124.184 68.9766 124.949 69.1406 125.66 69.4688C126.371 69.7969 126.992 70.25 127.523 70.8281C128.062 71.3984 128.48 72.0508 128.777 72.7852C129.082 73.5195 129.234 74.2969 129.234 75.1172C129.234 76.2031 128.977 77.2109 128.461 78.1406C127.945 79.0703 127.246 79.8242 126.363 80.4023C125.488 80.9727 124.504 81.2617 123.41 81.2695C122.301 81.2695 121.301 80.9844 120.41 80.4141C119.52 79.8438 118.812 79.0938 118.289 78.1641C117.773 77.2266 117.516 76.2109 117.516 75.1172C117.516 74.3047 117.664 73.5312 117.961 72.7969C118.266 72.0547 118.684 71.3984 119.215 70.8281C119.746 70.25 120.363 69.7969 121.066 69.4688C121.777 69.1406 122.543 68.9766 123.363 68.9766ZM123.363 70.7344C122.598 70.7344 121.906 70.9375 121.289 71.3438C120.672 71.75 120.18 72.2852 119.812 72.9492C119.453 73.6055 119.273 74.3203 119.273 75.0938C119.273 75.875 119.453 76.6016 119.812 77.2734C120.172 77.9453 120.664 78.4883 121.289 78.9023C121.914 79.3086 122.617 79.5117 123.398 79.5117C124.172 79.5039 124.863 79.2969 125.473 78.8906C126.09 78.4766 126.578 77.9375 126.938 77.2734C127.297 76.6094 127.477 75.8906 127.477 75.1172C127.477 74.3438 127.293 73.625 126.926 72.9609C126.566 72.2891 126.074 71.75 125.449 71.3438C124.832 70.9375 124.137 70.7344 123.363 70.7344ZM132.691 68.9648C132.934 68.9648 133.129 69.0508 133.277 69.2227C133.434 69.3945 133.512 69.6016 133.512 69.8438L133.57 71.2383C133.852 70.8945 134.176 70.5508 134.543 70.207C134.918 69.8633 135.344 69.5781 135.82 69.3516C136.305 69.1172 136.844 69 137.438 69C138.477 69 139.309 69.2656 139.934 69.7969C140.566 70.3281 141.023 71.0273 141.305 71.8945C141.594 72.7539 141.738 73.6836 141.738 74.6836L141.727 80.3672C141.727 80.6094 141.641 80.8164 141.469 80.9883C141.297 81.1602 141.09 81.2461 140.848 81.2461C140.605 81.2461 140.398 81.1602 140.227 80.9883C140.055 80.8086 139.969 80.5977 139.969 80.3555L139.98 74.6836C139.98 73.9883 139.91 73.3438 139.77 72.75C139.629 72.1562 139.375 71.6758 139.008 71.3086C138.641 70.9414 138.117 70.7578 137.438 70.7578C136.164 70.7578 135.203 71.0977 134.555 71.7773C133.906 72.457 133.582 73.4141 133.582 74.6484V80.3906C133.582 80.6328 133.496 80.8398 133.324 81.0117C133.152 81.1836 132.945 81.2695 132.703 81.2695C132.461 81.2695 132.254 81.1797 132.082 81C131.91 80.8281 131.824 80.6211 131.824 80.3789L131.812 69.8555C131.812 69.6055 131.895 69.3945 132.059 69.2227C132.23 69.0508 132.441 68.9648 132.691 68.9648ZM150.117 68.9297C151.164 68.9297 152.117 69.1562 152.977 69.6094C153.844 70.0625 154.484 70.6797 154.898 71.4609C154.969 71.5859 155.004 71.7227 155.004 71.8711C155.004 72.1055 154.918 72.3047 154.746 72.4688C154.582 72.6328 154.383 72.7148 154.148 72.7148C154.008 72.7148 153.863 72.6719 153.715 72.5859C153.566 72.4922 153.461 72.3828 153.398 72.2578C153.117 71.7266 152.688 71.3242 152.109 71.0508C151.539 70.7695 150.871 70.6289 150.105 70.6289C149.621 70.6289 149.094 70.6953 148.523 70.8281C147.953 70.9531 147.461 71.1641 147.047 71.4609C146.641 71.75 146.438 72.1406 146.438 72.6328C146.438 73.0156 146.602 73.3125 146.93 73.5234C147.258 73.7344 147.664 73.8906 148.148 73.9922C148.641 74.0859 149.137 74.1523 149.637 74.1914C150.145 74.2305 150.578 74.2695 150.938 74.3086C151.648 74.3789 152.348 74.5078 153.035 74.6953C153.723 74.8828 154.293 75.1914 154.746 75.6211C155.199 76.0508 155.426 76.6719 155.426 77.4844C155.426 78.3594 155.168 79.0781 154.652 79.6406C154.137 80.1953 153.477 80.6055 152.672 80.8711C151.867 81.1289 151.031 81.2578 150.164 81.2578C148.945 81.2578 147.84 81.0234 146.848 80.5547C145.855 80.0781 145.125 79.3828 144.656 78.4688C144.594 78.3594 144.562 78.2266 144.562 78.0703C144.562 77.8359 144.645 77.6367 144.809 77.4727C144.973 77.3086 145.172 77.2266 145.406 77.2266C145.555 77.2266 145.703 77.2734 145.852 77.3672C146 77.4531 146.105 77.5625 146.168 77.6953C146.504 78.3359 147.02 78.8086 147.715 79.1133C148.41 79.4102 149.227 79.5586 150.164 79.5586C150.703 79.5586 151.246 79.4961 151.793 79.3711C152.348 79.2383 152.809 79.0195 153.176 78.7148C153.551 78.4102 153.738 78 153.738 77.4844C153.738 77.0781 153.57 76.7695 153.234 76.5586C152.898 76.3398 152.477 76.1836 151.969 76.0898C151.461 75.9961 150.945 75.9336 150.422 75.9023C149.906 75.8711 149.461 75.832 149.086 75.7852C148.422 75.707 147.754 75.5742 147.082 75.3867C146.418 75.1914 145.863 74.8789 145.418 74.4492C144.973 74.0195 144.75 73.4141 144.75 72.6328C144.75 71.9766 144.91 71.418 145.23 70.957C145.559 70.4883 145.984 70.1055 146.508 69.8086C147.039 69.5039 147.621 69.2812 148.254 69.1406C148.887 69 149.508 68.9297 150.117 68.9297ZM167.297 81.3047C167.055 81.3047 166.855 81.2188 166.699 81.0469C166.551 80.875 166.477 80.668 166.477 80.4258L166.418 79.0312C166.145 79.3672 165.82 79.7109 165.445 80.0625C165.07 80.4062 164.645 80.6953 164.168 80.9297C163.691 81.1562 163.152 81.2695 162.551 81.2695C161.52 81.2695 160.688 81.0039 160.055 80.4727C159.422 79.9414 158.961 79.2422 158.672 78.375C158.391 77.5078 158.25 76.5781 158.25 75.5859L158.262 69.9023C158.262 69.6602 158.348 69.4531 158.52 69.2812C158.691 69.1094 158.898 69.0234 159.141 69.0234C159.391 69.0234 159.598 69.1094 159.762 69.2812C159.934 69.4531 160.02 69.6641 160.02 69.9141L160.008 75.5859C160.008 76.2734 160.078 76.918 160.219 77.5195C160.359 78.1133 160.613 78.5938 160.98 78.9609C161.355 79.3281 161.879 79.5117 162.551 79.5117C163.824 79.5117 164.785 79.1719 165.434 78.4922C166.082 77.8125 166.406 76.8555 166.406 75.6211V69.8789C166.406 69.6367 166.492 69.4297 166.664 69.2578C166.836 69.0859 167.043 69 167.285 69C167.535 69 167.742 69.0859 167.906 69.2578C168.078 69.4297 168.164 69.6406 168.164 69.8906L168.176 80.4141C168.176 80.6562 168.09 80.8633 167.918 81.0352C167.754 81.2148 167.547 81.3047 167.297 81.3047ZM171.82 64.7812C172.109 64.7812 172.336 64.8789 172.5 65.0742C172.672 65.2617 172.758 65.4609 172.758 65.6719V80.5547C172.758 80.7578 172.664 80.9336 172.477 81.082C172.297 81.2305 172.121 81.3047 171.949 81.3047C171.684 81.3047 171.457 81.2227 171.27 81.0586C171.09 80.8945 171 80.6836 171 80.4258V65.6953C171 65.4688 171.082 65.2617 171.246 65.0742C171.41 64.8789 171.602 64.7812 171.82 64.7812ZM177.387 66.5391C177.387 66.2969 177.473 66.0898 177.645 65.918C177.816 65.7461 178.023 65.6602 178.266 65.6602C178.508 65.6602 178.715 65.7461 178.887 65.918C179.059 66.0898 179.145 66.2969 179.145 66.5391L179.133 69.1641L181.418 69.1758C181.645 69.1758 181.836 69.2578 181.992 69.4219C182.156 69.5781 182.238 69.7695 182.238 69.9961C182.238 70.2227 182.156 70.418 181.992 70.582C181.836 70.7383 181.645 70.8164 181.418 70.8164L179.133 70.8047L179.121 78.1172C179.121 78.5312 179.184 78.8672 179.309 79.125C179.434 79.375 179.688 79.5 180.07 79.5C180.414 79.5 180.695 79.4375 180.914 79.3125C181.141 79.1797 181.398 79.1133 181.688 79.1133C181.93 79.1133 182.137 79.1992 182.309 79.3711C182.48 79.543 182.566 79.75 182.566 79.9922C182.566 80.3203 182.426 80.5781 182.145 80.7656C181.863 80.9531 181.531 81.082 181.148 81.1523C180.773 81.2305 180.438 81.2695 180.141 81.2695C179.219 81.2695 178.523 80.9766 178.055 80.3906C177.594 79.7969 177.363 79.0312 177.363 78.0938L177.375 70.8164H175.57C175.344 70.8164 175.148 70.7383 174.984 70.582C174.828 70.418 174.75 70.2227 174.75 69.9961C174.75 69.7695 174.828 69.5781 174.984 69.4219C175.148 69.2578 175.344 69.1758 175.57 69.1758H177.375L177.387 66.5391ZM190.184 68.9766C191.004 68.9766 191.77 69.1406 192.48 69.4688C193.191 69.7969 193.812 70.25 194.344 70.8281C194.883 71.3984 195.301 72.0508 195.598 72.7852C195.902 73.5195 196.055 74.2969 196.055 75.1172C196.055 76.2031 195.797 77.2109 195.281 78.1406C194.766 79.0703 194.066 79.8242 193.184 80.4023C192.309 80.9727 191.324 81.2617 190.23 81.2695C189.121 81.2695 188.121 80.9844 187.23 80.4141C186.34 79.8438 185.633 79.0938 185.109 78.1641C184.594 77.2266 184.336 76.2109 184.336 75.1172C184.336 74.3047 184.484 73.5312 184.781 72.7969C185.086 72.0547 185.504 71.3984 186.035 70.8281C186.566 70.25 187.184 69.7969 187.887 69.4688C188.598 69.1406 189.363 68.9766 190.184 68.9766ZM190.184 70.7344C189.418 70.7344 188.727 70.9375 188.109 71.3438C187.492 71.75 187 72.2852 186.633 72.9492C186.273 73.6055 186.094 74.3203 186.094 75.0938C186.094 75.875 186.273 76.6016 186.633 77.2734C186.992 77.9453 187.484 78.4883 188.109 78.9023C188.734 79.3086 189.438 79.5117 190.219 79.5117C190.992 79.5039 191.684 79.2969 192.293 78.8906C192.91 78.4766 193.398 77.9375 193.758 77.2734C194.117 76.6094 194.297 75.8906 194.297 75.1172C194.297 74.3438 194.113 73.625 193.746 72.9609C193.387 72.2891 192.895 71.75 192.27 71.3438C191.652 70.9375 190.957 70.7344 190.184 70.7344ZM205.535 70.1133C205.535 70.3242 205.465 70.5195 205.324 70.6992C205.184 70.8789 205.031 70.9688 204.867 70.9688C204.625 70.9688 204.395 70.9141 204.176 70.8047C203.965 70.6875 203.707 70.6289 203.402 70.6289C202.637 70.6289 202.035 70.793 201.598 71.1211C201.16 71.4492 200.848 71.8711 200.66 72.3867C200.48 72.8945 200.391 73.4336 200.391 74.0039V80.3906C200.391 80.6328 200.316 80.8398 200.168 81.0117C200.027 81.1914 199.809 81.2812 199.512 81.2812C199.223 81.2812 199.004 81.1914 198.855 81.0117C198.707 80.8398 198.633 80.6328 198.633 80.3906V69.9961C198.633 69.707 198.727 69.4727 198.914 69.293C199.109 69.1133 199.316 69.0234 199.535 69.0234C199.762 69.0234 199.945 69.1133 200.086 69.293C200.234 69.4648 200.309 69.6992 200.309 69.9961L200.414 71.2852C200.523 70.9258 200.727 70.5703 201.023 70.2188C201.328 69.8672 201.684 69.5742 202.09 69.3398C202.504 69.0977 202.922 68.9766 203.344 68.9766C203.945 68.9766 204.461 69.0586 204.891 69.2227C205.32 69.3789 205.535 69.6758 205.535 70.1133ZM208.102 67.207C207.766 67.207 207.469 67.0859 207.211 66.8438C206.961 66.6016 206.836 66.3086 206.836 65.9648C206.836 65.6211 206.961 65.3281 207.211 65.0859C207.469 64.8438 207.766 64.7227 208.102 64.7227C208.445 64.7227 208.742 64.8438 208.992 65.0859C209.242 65.3281 209.367 65.6211 209.367 65.9648C209.367 66.3086 209.242 66.6016 208.992 66.8438C208.742 67.0859 208.445 67.207 208.102 67.207ZM207.246 69.75C207.246 69.5469 207.34 69.3711 207.527 69.2227C207.715 69.0664 207.891 68.9883 208.055 68.9883C208.328 68.9883 208.555 69.0703 208.734 69.2344C208.914 69.3984 209.004 69.6133 209.004 69.8789L209.027 80.3906C209.027 80.6328 208.941 80.8398 208.77 81.0117C208.598 81.1836 208.391 81.2695 208.148 81.2695C207.906 81.2695 207.699 81.1797 207.527 81C207.355 80.8281 207.27 80.6211 207.27 80.3789L207.246 69.75ZM217.676 68.9883C218.512 68.9883 219.262 69.2305 219.926 69.7148C220.598 70.1992 221.184 70.7109 221.684 71.25L221.789 69.7734C221.789 69.5469 221.852 69.3555 221.977 69.1992C222.102 69.0352 222.277 68.9531 222.504 68.9531C222.73 68.9531 222.922 69.0352 223.078 69.1992C223.242 69.3555 223.324 69.5469 223.324 69.7734V80.3672C223.324 80.5938 223.242 80.7891 223.078 80.9531C222.922 81.1094 222.73 81.1875 222.504 81.1875C222.277 81.1875 222.082 81.1094 221.918 80.9531C221.762 80.7891 221.684 80.5938 221.684 80.3672V79.0312C221.168 79.5938 220.555 80.1016 219.844 80.5547C219.141 81.0078 218.398 81.2344 217.617 81.2344C216.812 81.2344 216.066 81.0703 215.379 80.7422C214.691 80.4062 214.09 79.9531 213.574 79.3828C213.059 78.8125 212.656 78.1641 212.367 77.4375C212.086 76.7031 211.945 75.9336 211.945 75.1289C211.945 74.332 212.086 73.5664 212.367 72.832C212.656 72.0898 213.059 71.4336 213.574 70.8633C214.098 70.2852 214.707 69.8281 215.402 69.4922C216.098 69.1562 216.855 68.9883 217.676 68.9883ZM221.742 75.0586C221.742 74.3008 221.559 73.5977 221.191 72.9492C220.832 72.293 220.344 71.7617 219.727 71.3555C219.117 70.9492 218.438 70.7461 217.688 70.7461C216.93 70.7461 216.25 70.9531 215.648 71.3672C215.047 71.7812 214.57 72.3242 214.219 72.9961C213.875 73.6602 213.703 74.3711 213.703 75.1289C213.703 75.8789 213.875 76.5859 214.219 77.25C214.562 77.9141 215.027 78.4531 215.613 78.8672C216.207 79.2734 216.875 79.4766 217.617 79.4766C218.367 79.4766 219.055 79.2695 219.68 78.8555C220.305 78.4336 220.805 77.8867 221.18 77.2148C221.555 76.5352 221.742 75.8164 221.742 75.0586ZM237.234 81.2461C236.172 81.2461 235.23 80.9648 234.41 80.4023C233.59 79.8398 232.945 79.1016 232.477 78.1875C232.008 77.2656 231.773 76.2773 231.773 75.2227C231.773 74.4258 231.91 73.6562 232.184 72.9141C232.457 72.1719 232.844 71.5117 233.344 70.9336C233.844 70.3477 234.434 69.8828 235.113 69.5391C235.793 69.1953 236.535 69.0234 237.34 69.0234C238.105 69.0234 238.805 69.2148 239.438 69.5977C240.07 69.9805 240.625 70.4219 241.102 70.9219V65.625C241.102 65.3828 241.188 65.1758 241.359 65.0039C241.531 64.832 241.738 64.7461 241.98 64.7461C242.23 64.7461 242.438 64.832 242.602 65.0039C242.773 65.1758 242.859 65.3828 242.859 65.625V80.3789C242.859 80.6211 242.773 80.8281 242.602 81C242.43 81.1719 242.223 81.2578 241.98 81.2578C241.738 81.2578 241.539 81.1719 241.383 81C241.234 80.8281 241.16 80.6211 241.16 80.3789L241.102 79.2539C240.656 79.707 240.105 80.1523 239.449 80.5898C238.793 81.0273 238.055 81.2461 237.234 81.2461ZM237.27 79.4883C238.066 79.4883 238.75 79.2734 239.32 78.8438C239.891 78.4141 240.328 77.8594 240.633 77.1797C240.938 76.5 241.09 75.793 241.09 75.0586C241.09 74.3242 240.938 73.6328 240.633 72.9844C240.336 72.3359 239.906 71.8086 239.344 71.4023C238.781 70.9883 238.105 70.7812 237.316 70.7812C236.559 70.7812 235.898 71 235.336 71.4375C234.773 71.8672 234.336 72.4258 234.023 73.1133C233.711 73.793 233.555 74.5078 233.555 75.2578C233.555 76 233.707 76.6953 234.012 77.3438C234.324 77.9844 234.758 78.5039 235.312 78.9023C235.875 79.293 236.527 79.4883 237.27 79.4883ZM251.508 81.2344C250.375 81.2344 249.348 80.9531 248.426 80.3906C247.512 79.8281 246.785 79.0781 246.246 78.1406C245.707 77.1953 245.438 76.1602 245.438 75.0352C245.438 73.9648 245.691 72.9766 246.199 72.0703C246.715 71.1562 247.41 70.4219 248.285 69.8672C249.16 69.3125 250.137 69.0352 251.215 69.0352C252.207 69.0352 253.117 69.2812 253.945 69.7734C254.781 70.2656 255.449 70.9297 255.949 71.7656C256.457 72.5938 256.711 73.5156 256.711 74.5312C256.711 74.8906 256.645 75.1992 256.512 75.457C256.387 75.7148 256.152 75.8438 255.809 75.8438H247.277C247.402 76.4922 247.656 77.0938 248.039 77.6484C248.43 78.1953 248.918 78.6367 249.504 78.9727C250.098 79.3086 250.758 79.4766 251.484 79.4766C252.102 79.4766 252.707 79.3398 253.301 79.0664C253.895 78.793 254.383 78.418 254.766 77.9414C254.938 77.7148 255.168 77.6016 255.457 77.6016C255.699 77.6016 255.906 77.6875 256.078 77.8594C256.25 78.0312 256.336 78.2383 256.336 78.4805C256.336 78.6914 256.266 78.8828 256.125 79.0547C255.562 79.7422 254.871 80.2773 254.051 80.6602C253.238 81.043 252.391 81.2344 251.508 81.2344ZM254.918 74.1094C254.848 73.5 254.641 72.9453 254.297 72.4453C253.953 71.9375 253.516 71.5352 252.984 71.2383C252.453 70.9414 251.867 70.793 251.227 70.793C250.562 70.793 249.957 70.9453 249.41 71.25C248.863 71.5547 248.406 71.957 248.039 72.457C247.68 72.957 247.434 73.5078 247.301 74.1094H254.918ZM266.039 81.2461C265.797 81.2461 265.59 81.1602 265.418 80.9883C265.246 80.8164 265.16 80.6094 265.16 80.3672V80.3555L265.148 65.6367V65.625C265.148 65.3984 265.23 65.1953 265.395 65.0156C265.566 64.8359 265.758 64.7461 265.969 64.7461C266.258 64.7461 266.484 64.832 266.648 65.0039C266.82 65.168 266.906 65.375 266.906 65.625V65.6367L266.918 80.3555V80.3672C266.918 80.6094 266.832 80.8164 266.66 80.9883C266.488 81.1602 266.281 81.2461 266.039 81.2461ZM278.672 71.4961C278.93 71.082 279.246 70.6797 279.621 70.2891C279.996 69.8984 280.441 69.5781 280.957 69.3281C281.473 69.0781 282.062 68.9531 282.727 68.9531C283.719 68.9531 284.508 69.1914 285.094 69.668C285.68 70.1367 286.102 70.7812 286.359 71.6016C286.625 72.4219 286.758 73.3516 286.758 74.3906L286.77 80.2969C286.77 80.5391 286.684 80.7461 286.512 80.918C286.34 81.0898 286.133 81.1758 285.891 81.1758C285.648 81.1758 285.441 81.0898 285.27 80.918C285.098 80.7383 285.012 80.5273 285.012 80.2852L285 74.3906C285 73.75 284.938 73.1523 284.812 72.5977C284.695 72.043 284.473 71.5938 284.145 71.25C283.816 70.9062 283.336 70.7344 282.703 70.7344C281.883 70.7344 281.211 70.9102 280.688 71.2617C280.164 71.6055 279.781 72.0586 279.539 72.6211C279.297 73.1758 279.172 73.7656 279.164 74.3906L279.141 80.332C279.141 80.5742 279.055 80.7812 278.883 80.9531C278.711 81.125 278.504 81.2109 278.262 81.2109C278.02 81.2109 277.812 81.125 277.641 80.9531C277.469 80.7734 277.383 80.5625 277.383 80.3203L277.371 74.3906C277.371 73.7344 277.309 73.1289 277.184 72.5742C277.059 72.0195 276.824 71.5742 276.48 71.2383C276.145 70.9023 275.656 70.7344 275.016 70.7344C273.898 70.7344 273.035 71.0781 272.426 71.7656C271.824 72.4453 271.523 73.3203 271.523 74.3906L271.512 80.3555C271.512 80.5977 271.426 80.8047 271.254 80.9766C271.082 81.1484 270.875 81.2344 270.633 81.2344C270.391 81.2344 270.184 81.1484 270.012 80.9766C269.84 80.7969 269.754 80.5859 269.754 80.3438L269.742 69.7969C269.758 69.5547 269.848 69.3555 270.012 69.1992C270.176 69.0352 270.379 68.9531 270.621 68.9531C270.871 68.9531 271.07 69.0352 271.219 69.1992C271.375 69.3555 271.449 69.5586 271.441 69.8086L271.5 71.1914C271.695 70.8555 271.969 70.5156 272.32 70.1719C272.68 69.8281 273.086 69.5391 273.539 69.3047C274 69.0703 274.48 68.9531 274.98 68.9531C275.926 68.9531 276.703 69.2109 277.312 69.7266C277.93 70.2344 278.383 70.8242 278.672 71.4961ZM295.09 68.9883C295.926 68.9883 296.676 69.2305 297.34 69.7148C298.012 70.1992 298.598 70.7109 299.098 71.25L299.203 69.7734C299.203 69.5469 299.266 69.3555 299.391 69.1992C299.516 69.0352 299.691 68.9531 299.918 68.9531C300.145 68.9531 300.336 69.0352 300.492 69.1992C300.656 69.3555 300.738 69.5469 300.738 69.7734V80.3672C300.738 80.5938 300.656 80.7891 300.492 80.9531C300.336 81.1094 300.145 81.1875 299.918 81.1875C299.691 81.1875 299.496 81.1094 299.332 80.9531C299.176 80.7891 299.098 80.5938 299.098 80.3672V79.0312C298.582 79.5938 297.969 80.1016 297.258 80.5547C296.555 81.0078 295.812 81.2344 295.031 81.2344C294.227 81.2344 293.48 81.0703 292.793 80.7422C292.105 80.4062 291.504 79.9531 290.988 79.3828C290.473 78.8125 290.07 78.1641 289.781 77.4375C289.5 76.7031 289.359 75.9336 289.359 75.1289C289.359 74.332 289.5 73.5664 289.781 72.832C290.07 72.0898 290.473 71.4336 290.988 70.8633C291.512 70.2852 292.121 69.8281 292.816 69.4922C293.512 69.1562 294.27 68.9883 295.09 68.9883ZM299.156 75.0586C299.156 74.3008 298.973 73.5977 298.605 72.9492C298.246 72.293 297.758 71.7617 297.141 71.3555C296.531 70.9492 295.852 70.7461 295.102 70.7461C294.344 70.7461 293.664 70.9531 293.062 71.3672C292.461 71.7812 291.984 72.3242 291.633 72.9961C291.289 73.6602 291.117 74.3711 291.117 75.1289C291.117 75.8789 291.289 76.5859 291.633 77.25C291.977 77.9141 292.441 78.4531 293.027 78.8672C293.621 79.2734 294.289 79.4766 295.031 79.4766C295.781 79.4766 296.469 79.2695 297.094 78.8555C297.719 78.4336 298.219 77.8867 298.594 77.2148C298.969 76.5352 299.156 75.8164 299.156 75.0586ZM309.023 69.0703C309.836 69.0703 310.582 69.2734 311.262 69.6797C311.949 70.0859 312.547 70.5625 313.055 71.1094L313.113 69.9141C313.113 69.6719 313.191 69.4648 313.348 69.293C313.504 69.1211 313.703 69.0352 313.945 69.0352C314.188 69.0352 314.395 69.1211 314.566 69.293C314.738 69.4648 314.824 69.6719 314.824 69.9141L314.812 69.9375L314.73 81C314.723 81.8359 314.551 82.625 314.215 83.3672C313.887 84.1094 313.434 84.7617 312.855 85.3242C312.277 85.8945 311.613 86.3398 310.863 86.6602C310.113 86.9805 309.316 87.1406 308.473 87.1406C307.527 87.1406 306.621 86.9297 305.754 86.5078C304.887 86.0938 304.156 85.5156 303.562 84.7734C303.43 84.6094 303.363 84.4219 303.363 84.2109C303.363 83.9688 303.449 83.7617 303.621 83.5898C303.793 83.418 304 83.332 304.242 83.332C304.539 83.332 304.773 83.4492 304.945 83.6836C305.359 84.207 305.883 84.6211 306.516 84.9258C307.156 85.2305 307.809 85.3828 308.473 85.3828C309.285 85.3828 310.027 85.1797 310.699 84.7734C311.379 84.375 311.922 83.8398 312.328 83.168C312.742 82.5039 312.957 81.7734 312.973 80.9766L312.984 79.2188C312.469 79.7422 311.867 80.2148 311.18 80.6367C310.5 81.0508 309.781 81.2578 309.023 81.2578C308.219 81.2578 307.469 81.0938 306.773 80.7656C306.086 80.4297 305.484 79.9766 304.969 79.4062C304.453 78.8359 304.051 78.1875 303.762 77.4609C303.473 76.7266 303.328 75.9609 303.328 75.1641C303.328 74.3672 303.469 73.6055 303.75 72.8789C304.039 72.1523 304.441 71.5039 304.957 70.9336C305.473 70.3555 306.074 69.9023 306.762 69.5742C307.457 69.2383 308.211 69.0703 309.023 69.0703ZM312.949 75.1641C312.949 74.4062 312.777 73.6992 312.434 73.043C312.098 72.3867 311.633 71.8555 311.039 71.4492C310.445 71.0352 309.773 70.8281 309.023 70.8281C308.266 70.8281 307.59 71.0352 306.996 71.4492C306.41 71.8555 305.945 72.3867 305.602 73.043C305.266 73.6992 305.098 74.4062 305.098 75.1641C305.098 75.9141 305.27 76.6211 305.613 77.2852C305.957 77.9414 306.422 78.4766 307.008 78.8906C307.602 79.2969 308.273 79.5 309.023 79.5C309.773 79.5 310.441 79.2969 311.027 78.8906C311.621 78.4766 312.09 77.9414 312.434 77.2852C312.777 76.6211 312.949 75.9141 312.949 75.1641ZM323.484 81.2344C322.352 81.2344 321.324 80.9531 320.402 80.3906C319.488 79.8281 318.762 79.0781 318.223 78.1406C317.684 77.1953 317.414 76.1602 317.414 75.0352C317.414 73.9648 317.668 72.9766 318.176 72.0703C318.691 71.1562 319.387 70.4219 320.262 69.8672C321.137 69.3125 322.113 69.0352 323.191 69.0352C324.184 69.0352 325.094 69.2812 325.922 69.7734C326.758 70.2656 327.426 70.9297 327.926 71.7656C328.434 72.5938 328.688 73.5156 328.688 74.5312C328.688 74.8906 328.621 75.1992 328.488 75.457C328.363 75.7148 328.129 75.8438 327.785 75.8438H319.254C319.379 76.4922 319.633 77.0938 320.016 77.6484C320.406 78.1953 320.895 78.6367 321.48 78.9727C322.074 79.3086 322.734 79.4766 323.461 79.4766C324.078 79.4766 324.684 79.3398 325.277 79.0664C325.871 78.793 326.359 78.418 326.742 77.9414C326.914 77.7148 327.145 77.6016 327.434 77.6016C327.676 77.6016 327.883 77.6875 328.055 77.8594C328.227 78.0312 328.312 78.2383 328.312 78.4805C328.312 78.6914 328.242 78.8828 328.102 79.0547C327.539 79.7422 326.848 80.2773 326.027 80.6602C325.215 81.043 324.367 81.2344 323.484 81.2344ZM326.895 74.1094C326.824 73.5 326.617 72.9453 326.273 72.4453C325.93 71.9375 325.492 71.5352 324.961 71.2383C324.43 70.9414 323.844 70.793 323.203 70.793C322.539 70.793 321.934 70.9453 321.387 71.25C320.84 71.5547 320.383 71.957 320.016 72.457C319.656 72.957 319.41 73.5078 319.277 74.1094H326.895ZM340.195 71.4961C340.453 71.082 340.77 70.6797 341.145 70.2891C341.52 69.8984 341.965 69.5781 342.48 69.3281C342.996 69.0781 343.586 68.9531 344.25 68.9531C345.242 68.9531 346.031 69.1914 346.617 69.668C347.203 70.1367 347.625 70.7812 347.883 71.6016C348.148 72.4219 348.281 73.3516 348.281 74.3906L348.293 80.2969C348.293 80.5391 348.207 80.7461 348.035 80.918C347.863 81.0898 347.656 81.1758 347.414 81.1758C347.172 81.1758 346.965 81.0898 346.793 80.918C346.621 80.7383 346.535 80.5273 346.535 80.2852L346.523 74.3906C346.523 73.75 346.461 73.1523 346.336 72.5977C346.219 72.043 345.996 71.5938 345.668 71.25C345.34 70.9062 344.859 70.7344 344.227 70.7344C343.406 70.7344 342.734 70.9102 342.211 71.2617C341.688 71.6055 341.305 72.0586 341.062 72.6211C340.82 73.1758 340.695 73.7656 340.688 74.3906L340.664 80.332C340.664 80.5742 340.578 80.7812 340.406 80.9531C340.234 81.125 340.027 81.2109 339.785 81.2109C339.543 81.2109 339.336 81.125 339.164 80.9531C338.992 80.7734 338.906 80.5625 338.906 80.3203L338.895 74.3906C338.895 73.7344 338.832 73.1289 338.707 72.5742C338.582 72.0195 338.348 71.5742 338.004 71.2383C337.668 70.9023 337.18 70.7344 336.539 70.7344C335.422 70.7344 334.559 71.0781 333.949 71.7656C333.348 72.4453 333.047 73.3203 333.047 74.3906L333.035 80.3555C333.035 80.5977 332.949 80.8047 332.777 80.9766C332.605 81.1484 332.398 81.2344 332.156 81.2344C331.914 81.2344 331.707 81.1484 331.535 80.9766C331.363 80.7969 331.277 80.5859 331.277 80.3438L331.266 69.7969C331.281 69.5547 331.371 69.3555 331.535 69.1992C331.699 69.0352 331.902 68.9531 332.145 68.9531C332.395 68.9531 332.594 69.0352 332.742 69.1992C332.898 69.3555 332.973 69.5586 332.965 69.8086L333.023 71.1914C333.219 70.8555 333.492 70.5156 333.844 70.1719C334.203 69.8281 334.609 69.5391 335.062 69.3047C335.523 69.0703 336.004 68.9531 336.504 68.9531C337.449 68.9531 338.227 69.2109 338.836 69.7266C339.453 70.2344 339.906 70.8242 340.195 71.4961ZM357.879 81.1758C357.637 81.1758 357.43 81.0898 357.258 80.918C357.086 80.7461 357 80.5391 357 80.2969V80.2852L356.977 65.6719C356.977 65.5156 357.055 65.332 357.211 65.1211C357.367 64.9102 357.578 64.8008 357.844 64.793L361.535 64.7695C362.652 64.7695 363.652 64.9492 364.535 65.3086C365.418 65.668 366.117 66.2148 366.633 66.9492C367.148 67.6758 367.406 68.5977 367.406 69.7148C367.406 71.0039 367.137 72.043 366.598 72.832C366.059 73.6133 365.309 74.1875 364.348 74.5547C363.395 74.9141 362.289 75.1133 361.031 75.1523L358.746 75.1992L358.758 80.2852V80.2969C358.758 80.5391 358.672 80.7461 358.5 80.918C358.328 81.0898 358.121 81.1758 357.879 81.1758ZM365.648 69.7266C365.648 68.5781 365.262 67.7617 364.488 67.2773C363.715 66.7852 362.703 66.5391 361.453 66.5391H358.734L358.746 73.4414L360.996 73.3945C361.934 73.3711 362.75 73.25 363.445 73.0312C364.141 72.8125 364.68 72.4414 365.062 71.918C365.453 71.3867 365.648 70.6562 365.648 69.7266ZM375.82 81.2344C374.688 81.2344 373.66 80.9531 372.738 80.3906C371.824 79.8281 371.098 79.0781 370.559 78.1406C370.02 77.1953 369.75 76.1602 369.75 75.0352C369.75 73.9648 370.004 72.9766 370.512 72.0703C371.027 71.1562 371.723 70.4219 372.598 69.8672C373.473 69.3125 374.449 69.0352 375.527 69.0352C376.52 69.0352 377.43 69.2812 378.258 69.7734C379.094 70.2656 379.762 70.9297 380.262 71.7656C380.77 72.5938 381.023 73.5156 381.023 74.5312C381.023 74.8906 380.957 75.1992 380.824 75.457C380.699 75.7148 380.465 75.8438 380.121 75.8438H371.59C371.715 76.4922 371.969 77.0938 372.352 77.6484C372.742 78.1953 373.23 78.6367 373.816 78.9727C374.41 79.3086 375.07 79.4766 375.797 79.4766C376.414 79.4766 377.02 79.3398 377.613 79.0664C378.207 78.793 378.695 78.418 379.078 77.9414C379.25 77.7148 379.48 77.6016 379.77 77.6016C380.012 77.6016 380.219 77.6875 380.391 77.8594C380.562 78.0312 380.648 78.2383 380.648 78.4805C380.648 78.6914 380.578 78.8828 380.438 79.0547C379.875 79.7422 379.184 80.2773 378.363 80.6602C377.551 81.043 376.703 81.2344 375.82 81.2344ZM379.23 74.1094C379.16 73.5 378.953 72.9453 378.609 72.4453C378.266 71.9375 377.828 71.5352 377.297 71.2383C376.766 70.9414 376.18 70.793 375.539 70.793C374.875 70.793 374.27 70.9453 373.723 71.25C373.176 71.5547 372.719 71.957 372.352 72.457C371.992 72.957 371.746 73.5078 371.613 74.1094H379.23ZM389.156 68.9297C390.203 68.9297 391.156 69.1562 392.016 69.6094C392.883 70.0625 393.523 70.6797 393.938 71.4609C394.008 71.5859 394.043 71.7227 394.043 71.8711C394.043 72.1055 393.957 72.3047 393.785 72.4688C393.621 72.6328 393.422 72.7148 393.188 72.7148C393.047 72.7148 392.902 72.6719 392.754 72.5859C392.605 72.4922 392.5 72.3828 392.438 72.2578C392.156 71.7266 391.727 71.3242 391.148 71.0508C390.578 70.7695 389.91 70.6289 389.145 70.6289C388.66 70.6289 388.133 70.6953 387.562 70.8281C386.992 70.9531 386.5 71.1641 386.086 71.4609C385.68 71.75 385.477 72.1406 385.477 72.6328C385.477 73.0156 385.641 73.3125 385.969 73.5234C386.297 73.7344 386.703 73.8906 387.188 73.9922C387.68 74.0859 388.176 74.1523 388.676 74.1914C389.184 74.2305 389.617 74.2695 389.977 74.3086C390.688 74.3789 391.387 74.5078 392.074 74.6953C392.762 74.8828 393.332 75.1914 393.785 75.6211C394.238 76.0508 394.465 76.6719 394.465 77.4844C394.465 78.3594 394.207 79.0781 393.691 79.6406C393.176 80.1953 392.516 80.6055 391.711 80.8711C390.906 81.1289 390.07 81.2578 389.203 81.2578C387.984 81.2578 386.879 81.0234 385.887 80.5547C384.895 80.0781 384.164 79.3828 383.695 78.4688C383.633 78.3594 383.602 78.2266 383.602 78.0703C383.602 77.8359 383.684 77.6367 383.848 77.4727C384.012 77.3086 384.211 77.2266 384.445 77.2266C384.594 77.2266 384.742 77.2734 384.891 77.3672C385.039 77.4531 385.145 77.5625 385.207 77.6953C385.543 78.3359 386.059 78.8086 386.754 79.1133C387.449 79.4102 388.266 79.5586 389.203 79.5586C389.742 79.5586 390.285 79.4961 390.832 79.3711C391.387 79.2383 391.848 79.0195 392.215 78.7148C392.59 78.4102 392.777 78 392.777 77.4844C392.777 77.0781 392.609 76.7695 392.273 76.5586C391.938 76.3398 391.516 76.1836 391.008 76.0898C390.5 75.9961 389.984 75.9336 389.461 75.9023C388.945 75.8711 388.5 75.832 388.125 75.7852C387.461 75.707 386.793 75.5742 386.121 75.3867C385.457 75.1914 384.902 74.8789 384.457 74.4492C384.012 74.0195 383.789 73.4141 383.789 72.6328C383.789 71.9766 383.949 71.418 384.27 70.957C384.598 70.4883 385.023 70.1055 385.547 69.8086C386.078 69.5039 386.66 69.2812 387.293 69.1406C387.926 69 388.547 68.9297 389.156 68.9297ZM402.844 68.9297C403.891 68.9297 404.844 69.1562 405.703 69.6094C406.57 70.0625 407.211 70.6797 407.625 71.4609C407.695 71.5859 407.73 71.7227 407.73 71.8711C407.73 72.1055 407.645 72.3047 407.473 72.4688C407.309 72.6328 407.109 72.7148 406.875 72.7148C406.734 72.7148 406.59 72.6719 406.441 72.5859C406.293 72.4922 406.188 72.3828 406.125 72.2578C405.844 71.7266 405.414 71.3242 404.836 71.0508C404.266 70.7695 403.598 70.6289 402.832 70.6289C402.348 70.6289 401.82 70.6953 401.25 70.8281C400.68 70.9531 400.188 71.1641 399.773 71.4609C399.367 71.75 399.164 72.1406 399.164 72.6328C399.164 73.0156 399.328 73.3125 399.656 73.5234C399.984 73.7344 400.391 73.8906 400.875 73.9922C401.367 74.0859 401.863 74.1523 402.363 74.1914C402.871 74.2305 403.305 74.2695 403.664 74.3086C404.375 74.3789 405.074 74.5078 405.762 74.6953C406.449 74.8828 407.02 75.1914 407.473 75.6211C407.926 76.0508 408.152 76.6719 408.152 77.4844C408.152 78.3594 407.895 79.0781 407.379 79.6406C406.863 80.1953 406.203 80.6055 405.398 80.8711C404.594 81.1289 403.758 81.2578 402.891 81.2578C401.672 81.2578 400.566 81.0234 399.574 80.5547C398.582 80.0781 397.852 79.3828 397.383 78.4688C397.32 78.3594 397.289 78.2266 397.289 78.0703C397.289 77.8359 397.371 77.6367 397.535 77.4727C397.699 77.3086 397.898 77.2266 398.133 77.2266C398.281 77.2266 398.43 77.2734 398.578 77.3672C398.727 77.4531 398.832 77.5625 398.895 77.6953C399.23 78.3359 399.746 78.8086 400.441 79.1133C401.137 79.4102 401.953 79.5586 402.891 79.5586C403.43 79.5586 403.973 79.4961 404.52 79.3711C405.074 79.2383 405.535 79.0195 405.902 78.7148C406.277 78.4102 406.465 78 406.465 77.4844C406.465 77.0781 406.297 76.7695 405.961 76.5586C405.625 76.3398 405.203 76.1836 404.695 76.0898C404.188 75.9961 403.672 75.9336 403.148 75.9023C402.633 75.8711 402.188 75.832 401.812 75.7852C401.148 75.707 400.48 75.5742 399.809 75.3867C399.145 75.1914 398.59 74.8789 398.145 74.4492C397.699 74.0195 397.477 73.4141 397.477 72.6328C397.477 71.9766 397.637 71.418 397.957 70.957C398.285 70.4883 398.711 70.1055 399.234 69.8086C399.766 69.5039 400.348 69.2812 400.98 69.1406C401.613 69 402.234 68.9297 402.844 68.9297ZM416.59 68.9766C417.41 68.9766 418.176 69.1406 418.887 69.4688C419.598 69.7969 420.219 70.25 420.75 70.8281C421.289 71.3984 421.707 72.0508 422.004 72.7852C422.309 73.5195 422.461 74.2969 422.461 75.1172C422.461 76.2031 422.203 77.2109 421.688 78.1406C421.172 79.0703 420.473 79.8242 419.59 80.4023C418.715 80.9727 417.73 81.2617 416.637 81.2695C415.527 81.2695 414.527 80.9844 413.637 80.4141C412.746 79.8438 412.039 79.0938 411.516 78.1641C411 77.2266 410.742 76.2109 410.742 75.1172C410.742 74.3047 410.891 73.5312 411.188 72.7969C411.492 72.0547 411.91 71.3984 412.441 70.8281C412.973 70.25 413.59 69.7969 414.293 69.4688C415.004 69.1406 415.77 68.9766 416.59 68.9766ZM416.59 70.7344C415.824 70.7344 415.133 70.9375 414.516 71.3438C413.898 71.75 413.406 72.2852 413.039 72.9492C412.68 73.6055 412.5 74.3203 412.5 75.0938C412.5 75.875 412.68 76.6016 413.039 77.2734C413.398 77.9453 413.891 78.4883 414.516 78.9023C415.141 79.3086 415.844 79.5117 416.625 79.5117C417.398 79.5039 418.09 79.2969 418.699 78.8906C419.316 78.4766 419.805 77.9375 420.164 77.2734C420.523 76.6094 420.703 75.8906 420.703 75.1172C420.703 74.3438 420.52 73.625 420.152 72.9609C419.793 72.2891 419.301 71.75 418.676 71.3438C418.059 70.9375 417.363 70.7344 416.59 70.7344ZM430.535 68.9883C431.371 68.9883 432.121 69.2305 432.785 69.7148C433.457 70.1992 434.043 70.7109 434.543 71.25L434.648 69.7734C434.648 69.5469 434.711 69.3555 434.836 69.1992C434.961 69.0352 435.137 68.9531 435.363 68.9531C435.59 68.9531 435.781 69.0352 435.938 69.1992C436.102 69.3555 436.184 69.5469 436.184 69.7734V80.3672C436.184 80.5938 436.102 80.7891 435.938 80.9531C435.781 81.1094 435.59 81.1875 435.363 81.1875C435.137 81.1875 434.941 81.1094 434.777 80.9531C434.621 80.7891 434.543 80.5938 434.543 80.3672V79.0312C434.027 79.5938 433.414 80.1016 432.703 80.5547C432 81.0078 431.258 81.2344 430.477 81.2344C429.672 81.2344 428.926 81.0703 428.238 80.7422C427.551 80.4062 426.949 79.9531 426.434 79.3828C425.918 78.8125 425.516 78.1641 425.227 77.4375C424.945 76.7031 424.805 75.9336 424.805 75.1289C424.805 74.332 424.945 73.5664 425.227 72.832C425.516 72.0898 425.918 71.4336 426.434 70.8633C426.957 70.2852 427.566 69.8281 428.262 69.4922C428.957 69.1562 429.715 68.9883 430.535 68.9883ZM434.602 75.0586C434.602 74.3008 434.418 73.5977 434.051 72.9492C433.691 72.293 433.203 71.7617 432.586 71.3555C431.977 70.9492 431.297 70.7461 430.547 70.7461C429.789 70.7461 429.109 70.9531 428.508 71.3672C427.906 71.7812 427.43 72.3242 427.078 72.9961C426.734 73.6602 426.562 74.3711 426.562 75.1289C426.562 75.8789 426.734 76.5859 427.078 77.25C427.422 77.9141 427.887 78.4531 428.473 78.8672C429.066 79.2734 429.734 79.4766 430.477 79.4766C431.227 79.4766 431.914 79.2695 432.539 78.8555C433.164 78.4336 433.664 77.8867 434.039 77.2148C434.414 76.5352 434.602 75.8164 434.602 75.0586ZM439.828 64.7812C440.117 64.7812 440.344 64.8789 440.508 65.0742C440.68 65.2617 440.766 65.4609 440.766 65.6719V80.5547C440.766 80.7578 440.672 80.9336 440.484 81.082C440.305 81.2305 440.129 81.3047 439.957 81.3047C439.691 81.3047 439.465 81.2227 439.277 81.0586C439.098 80.8945 439.008 80.6836 439.008 80.4258V65.6953C439.008 65.4688 439.09 65.2617 439.254 65.0742C439.418 64.8789 439.609 64.7812 439.828 64.7812ZM81 97.7305C81.4297 97.7305 81.8281 97.8398 82.1953 98.0586C82.5703 98.2695 82.8711 98.5547 83.0977 98.9141C83.332 99.2734 83.4492 99.668 83.4492 100.098C83.4492 100.527 83.332 100.926 83.0977 101.293C82.8711 101.652 82.5703 101.945 82.1953 102.172C81.8281 102.391 81.4297 102.5 81 102.5C80.5703 102.5 80.168 102.391 79.793 102.172C79.4258 101.945 79.125 101.652 78.8906 101.293C78.6641 100.926 78.5508 100.527 78.5508 100.098C78.5508 99.668 78.6641 99.2734 78.8906 98.9141C79.125 98.5547 79.4258 98.2695 79.793 98.0586C80.168 97.8398 80.5703 97.7305 81 97.7305ZM100.406 91.6484C100.406 91.4297 100.488 91.2305 100.652 91.0508C100.816 90.8633 101.027 90.7695 101.285 90.7695C101.441 90.7695 101.594 90.8203 101.742 90.9219C101.891 91.0234 102.004 91.1406 102.082 91.2734L108.621 101.973L115.23 91.2031C115.402 90.9219 115.652 90.7812 115.98 90.7812C116.223 90.7812 116.43 90.8672 116.602 91.0391C116.773 91.2109 116.859 91.418 116.859 91.6602V106.344C116.859 106.586 116.773 106.793 116.602 106.965C116.43 107.137 116.223 107.223 115.98 107.223C115.738 107.223 115.531 107.137 115.359 106.965C115.188 106.793 115.102 106.586 115.102 106.344V94.7773L109.371 104.117C109.199 104.398 108.949 104.539 108.621 104.539C108.293 104.539 108.043 104.398 107.871 104.117L102.164 94.7891V106.297C102.164 106.539 102.078 106.746 101.906 106.918C101.734 107.09 101.527 107.176 101.285 107.176C101.043 107.176 100.836 107.09 100.664 106.918C100.492 106.746 100.406 106.539 100.406 106.297V91.6484ZM125.285 94.9766C126.105 94.9766 126.871 95.1406 127.582 95.4688C128.293 95.7969 128.914 96.25 129.445 96.8281C129.984 97.3984 130.402 98.0508 130.699 98.7852C131.004 99.5195 131.156 100.297 131.156 101.117C131.156 102.203 130.898 103.211 130.383 104.141C129.867 105.07 129.168 105.824 128.285 106.402C127.41 106.973 126.426 107.262 125.332 107.27C124.223 107.27 123.223 106.984 122.332 106.414C121.441 105.844 120.734 105.094 120.211 104.164C119.695 103.227 119.438 102.211 119.438 101.117C119.438 100.305 119.586 99.5312 119.883 98.7969C120.188 98.0547 120.605 97.3984 121.137 96.8281C121.668 96.25 122.285 95.7969 122.988 95.4688C123.699 95.1406 124.465 94.9766 125.285 94.9766ZM125.285 96.7344C124.52 96.7344 123.828 96.9375 123.211 97.3438C122.594 97.75 122.102 98.2852 121.734 98.9492C121.375 99.6055 121.195 100.32 121.195 101.094C121.195 101.875 121.375 102.602 121.734 103.273C122.094 103.945 122.586 104.488 123.211 104.902C123.836 105.309 124.539 105.512 125.32 105.512C126.094 105.504 126.785 105.297 127.395 104.891C128.012 104.477 128.5 103.938 128.859 103.273C129.219 102.609 129.398 101.891 129.398 101.117C129.398 100.344 129.215 99.625 128.848 98.9609C128.488 98.2891 127.996 97.75 127.371 97.3438C126.754 96.9375 126.059 96.7344 125.285 96.7344ZM138.961 107.246C137.898 107.246 136.957 106.965 136.137 106.402C135.316 105.84 134.672 105.102 134.203 104.188C133.734 103.266 133.5 102.277 133.5 101.223C133.5 100.426 133.637 99.6562 133.91 98.9141C134.184 98.1719 134.57 97.5117 135.07 96.9336C135.57 96.3477 136.16 95.8828 136.84 95.5391C137.52 95.1953 138.262 95.0234 139.066 95.0234C139.832 95.0234 140.531 95.2148 141.164 95.5977C141.797 95.9805 142.352 96.4219 142.828 96.9219V91.625C142.828 91.3828 142.914 91.1758 143.086 91.0039C143.258 90.832 143.465 90.7461 143.707 90.7461C143.957 90.7461 144.164 90.832 144.328 91.0039C144.5 91.1758 144.586 91.3828 144.586 91.625V106.379C144.586 106.621 144.5 106.828 144.328 107C144.156 107.172 143.949 107.258 143.707 107.258C143.465 107.258 143.266 107.172 143.109 107C142.961 106.828 142.887 106.621 142.887 106.379L142.828 105.254C142.383 105.707 141.832 106.152 141.176 106.59C140.52 107.027 139.781 107.246 138.961 107.246ZM138.996 105.488C139.793 105.488 140.477 105.273 141.047 104.844C141.617 104.414 142.055 103.859 142.359 103.18C142.664 102.5 142.816 101.793 142.816 101.059C142.816 100.324 142.664 99.6328 142.359 98.9844C142.062 98.3359 141.633 97.8086 141.07 97.4023C140.508 96.9883 139.832 96.7812 139.043 96.7812C138.285 96.7812 137.625 97 137.062 97.4375C136.5 97.8672 136.062 98.4258 135.75 99.1133C135.438 99.793 135.281 100.508 135.281 101.258C135.281 102 135.434 102.695 135.738 103.344C136.051 103.984 136.484 104.504 137.039 104.902C137.602 105.293 138.254 105.488 138.996 105.488ZM153.234 107.234C152.102 107.234 151.074 106.953 150.152 106.391C149.238 105.828 148.512 105.078 147.973 104.141C147.434 103.195 147.164 102.16 147.164 101.035C147.164 99.9648 147.418 98.9766 147.926 98.0703C148.441 97.1562 149.137 96.4219 150.012 95.8672C150.887 95.3125 151.863 95.0352 152.941 95.0352C153.934 95.0352 154.844 95.2812 155.672 95.7734C156.508 96.2656 157.176 96.9297 157.676 97.7656C158.184 98.5938 158.438 99.5156 158.438 100.531C158.438 100.891 158.371 101.199 158.238 101.457C158.113 101.715 157.879 101.844 157.535 101.844H149.004C149.129 102.492 149.383 103.094 149.766 103.648C150.156 104.195 150.645 104.637 151.23 104.973C151.824 105.309 152.484 105.477 153.211 105.477C153.828 105.477 154.434 105.34 155.027 105.066C155.621 104.793 156.109 104.418 156.492 103.941C156.664 103.715 156.895 103.602 157.184 103.602C157.426 103.602 157.633 103.688 157.805 103.859C157.977 104.031 158.062 104.238 158.062 104.48C158.062 104.691 157.992 104.883 157.852 105.055C157.289 105.742 156.598 106.277 155.777 106.66C154.965 107.043 154.117 107.234 153.234 107.234ZM156.645 100.109C156.574 99.5 156.367 98.9453 156.023 98.4453C155.68 97.9375 155.242 97.5352 154.711 97.2383C154.18 96.9414 153.594 96.793 152.953 96.793C152.289 96.793 151.684 96.9453 151.137 97.25C150.59 97.5547 150.133 97.957 149.766 98.457C149.406 98.957 149.16 99.5078 149.027 100.109H156.645ZM161.836 90.7812C162.125 90.7812 162.352 90.8789 162.516 91.0742C162.688 91.2617 162.773 91.4609 162.773 91.6719V106.555C162.773 106.758 162.68 106.934 162.492 107.082C162.312 107.23 162.137 107.305 161.965 107.305C161.699 107.305 161.473 107.223 161.285 107.059C161.105 106.895 161.016 106.684 161.016 106.426V91.6953C161.016 91.4688 161.098 91.2617 161.262 91.0742C161.426 90.8789 161.617 90.7812 161.836 90.7812ZM171.082 94.9883C171.918 94.9883 172.668 95.2305 173.332 95.7148C174.004 96.1992 174.59 96.7109 175.09 97.25L175.195 95.7734C175.195 95.5469 175.258 95.3555 175.383 95.1992C175.508 95.0352 175.684 94.9531 175.91 94.9531C176.137 94.9531 176.328 95.0352 176.484 95.1992C176.648 95.3555 176.73 95.5469 176.73 95.7734V106.367C176.73 106.594 176.648 106.789 176.484 106.953C176.328 107.109 176.137 107.188 175.91 107.188C175.684 107.188 175.488 107.109 175.324 106.953C175.168 106.789 175.09 106.594 175.09 106.367V105.031C174.574 105.594 173.961 106.102 173.25 106.555C172.547 107.008 171.805 107.234 171.023 107.234C170.219 107.234 169.473 107.07 168.785 106.742C168.098 106.406 167.496 105.953 166.98 105.383C166.465 104.812 166.062 104.164 165.773 103.438C165.492 102.703 165.352 101.934 165.352 101.129C165.352 100.332 165.492 99.5664 165.773 98.832C166.062 98.0898 166.465 97.4336 166.98 96.8633C167.504 96.2852 168.113 95.8281 168.809 95.4922C169.504 95.1562 170.262 94.9883 171.082 94.9883ZM175.148 101.059C175.148 100.301 174.965 99.5977 174.598 98.9492C174.238 98.293 173.75 97.7617 173.133 97.3555C172.523 96.9492 171.844 96.7461 171.094 96.7461C170.336 96.7461 169.656 96.9531 169.055 97.3672C168.453 97.7812 167.977 98.3242 167.625 98.9961C167.281 99.6602 167.109 100.371 167.109 101.129C167.109 101.879 167.281 102.586 167.625 103.25C167.969 103.914 168.434 104.453 169.02 104.867C169.613 105.273 170.281 105.477 171.023 105.477C171.773 105.477 172.461 105.27 173.086 104.855C173.711 104.434 174.211 103.887 174.586 103.215C174.961 102.535 175.148 101.816 175.148 101.059ZM185.016 95.0703C185.828 95.0703 186.574 95.2734 187.254 95.6797C187.941 96.0859 188.539 96.5625 189.047 97.1094L189.105 95.9141C189.105 95.6719 189.184 95.4648 189.34 95.293C189.496 95.1211 189.695 95.0352 189.938 95.0352C190.18 95.0352 190.387 95.1211 190.559 95.293C190.73 95.4648 190.816 95.6719 190.816 95.9141L190.805 95.9375L190.723 107C190.715 107.836 190.543 108.625 190.207 109.367C189.879 110.109 189.426 110.762 188.848 111.324C188.27 111.895 187.605 112.34 186.855 112.66C186.105 112.98 185.309 113.141 184.465 113.141C183.52 113.141 182.613 112.93 181.746 112.508C180.879 112.094 180.148 111.516 179.555 110.773C179.422 110.609 179.355 110.422 179.355 110.211C179.355 109.969 179.441 109.762 179.613 109.59C179.785 109.418 179.992 109.332 180.234 109.332C180.531 109.332 180.766 109.449 180.938 109.684C181.352 110.207 181.875 110.621 182.508 110.926C183.148 111.23 183.801 111.383 184.465 111.383C185.277 111.383 186.02 111.18 186.691 110.773C187.371 110.375 187.914 109.84 188.32 109.168C188.734 108.504 188.949 107.773 188.965 106.977L188.977 105.219C188.461 105.742 187.859 106.215 187.172 106.637C186.492 107.051 185.773 107.258 185.016 107.258C184.211 107.258 183.461 107.094 182.766 106.766C182.078 106.43 181.477 105.977 180.961 105.406C180.445 104.836 180.043 104.188 179.754 103.461C179.465 102.727 179.32 101.961 179.32 101.164C179.32 100.367 179.461 99.6055 179.742 98.8789C180.031 98.1523 180.434 97.5039 180.949 96.9336C181.465 96.3555 182.066 95.9023 182.754 95.5742C183.449 95.2383 184.203 95.0703 185.016 95.0703ZM188.941 101.164C188.941 100.406 188.77 99.6992 188.426 99.043C188.09 98.3867 187.625 97.8555 187.031 97.4492C186.438 97.0352 185.766 96.8281 185.016 96.8281C184.258 96.8281 183.582 97.0352 182.988 97.4492C182.402 97.8555 181.938 98.3867 181.594 99.043C181.258 99.6992 181.09 100.406 181.09 101.164C181.09 101.914 181.262 102.621 181.605 103.285C181.949 103.941 182.414 104.477 183 104.891C183.594 105.297 184.266 105.5 185.016 105.5C185.766 105.5 186.434 105.297 187.02 104.891C187.613 104.477 188.082 103.941 188.426 103.285C188.77 102.621 188.941 101.914 188.941 101.164ZM199.477 107.234C198.344 107.234 197.316 106.953 196.395 106.391C195.48 105.828 194.754 105.078 194.215 104.141C193.676 103.195 193.406 102.16 193.406 101.035C193.406 99.9648 193.66 98.9766 194.168 98.0703C194.684 97.1562 195.379 96.4219 196.254 95.8672C197.129 95.3125 198.105 95.0352 199.184 95.0352C200.176 95.0352 201.086 95.2812 201.914 95.7734C202.75 96.2656 203.418 96.9297 203.918 97.7656C204.426 98.5938 204.68 99.5156 204.68 100.531C204.68 100.891 204.613 101.199 204.48 101.457C204.355 101.715 204.121 101.844 203.777 101.844H195.246C195.371 102.492 195.625 103.094 196.008 103.648C196.398 104.195 196.887 104.637 197.473 104.973C198.066 105.309 198.727 105.477 199.453 105.477C200.07 105.477 200.676 105.34 201.27 105.066C201.863 104.793 202.352 104.418 202.734 103.941C202.906 103.715 203.137 103.602 203.426 103.602C203.668 103.602 203.875 103.688 204.047 103.859C204.219 104.031 204.305 104.238 204.305 104.48C204.305 104.691 204.234 104.883 204.094 105.055C203.531 105.742 202.84 106.277 202.02 106.66C201.207 107.043 200.359 107.234 199.477 107.234ZM202.887 100.109C202.816 99.5 202.609 98.9453 202.266 98.4453C201.922 97.9375 201.484 97.5352 200.953 97.2383C200.422 96.9414 199.836 96.793 199.195 96.793C198.531 96.793 197.926 96.9453 197.379 97.25C196.832 97.5547 196.375 97.957 196.008 98.457C195.648 98.957 195.402 99.5078 195.27 100.109H202.887ZM216.188 97.4961C216.445 97.082 216.762 96.6797 217.137 96.2891C217.512 95.8984 217.957 95.5781 218.473 95.3281C218.988 95.0781 219.578 94.9531 220.242 94.9531C221.234 94.9531 222.023 95.1914 222.609 95.668C223.195 96.1367 223.617 96.7812 223.875 97.6016C224.141 98.4219 224.273 99.3516 224.273 100.391L224.285 106.297C224.285 106.539 224.199 106.746 224.027 106.918C223.855 107.09 223.648 107.176 223.406 107.176C223.164 107.176 222.957 107.09 222.785 106.918C222.613 106.738 222.527 106.527 222.527 106.285L222.516 100.391C222.516 99.75 222.453 99.1523 222.328 98.5977C222.211 98.043 221.988 97.5938 221.66 97.25C221.332 96.9062 220.852 96.7344 220.219 96.7344C219.398 96.7344 218.727 96.9102 218.203 97.2617C217.68 97.6055 217.297 98.0586 217.055 98.6211C216.812 99.1758 216.688 99.7656 216.68 100.391L216.656 106.332C216.656 106.574 216.57 106.781 216.398 106.953C216.227 107.125 216.02 107.211 215.777 107.211C215.535 107.211 215.328 107.125 215.156 106.953C214.984 106.773 214.898 106.562 214.898 106.32L214.887 100.391C214.887 99.7344 214.824 99.1289 214.699 98.5742C214.574 98.0195 214.34 97.5742 213.996 97.2383C213.66 96.9023 213.172 96.7344 212.531 96.7344C211.414 96.7344 210.551 97.0781 209.941 97.7656C209.34 98.4453 209.039 99.3203 209.039 100.391L209.027 106.355C209.027 106.598 208.941 106.805 208.77 106.977C208.598 107.148 208.391 107.234 208.148 107.234C207.906 107.234 207.699 107.148 207.527 106.977C207.355 106.797 207.27 106.586 207.27 106.344L207.258 95.7969C207.273 95.5547 207.363 95.3555 207.527 95.1992C207.691 95.0352 207.895 94.9531 208.137 94.9531C208.387 94.9531 208.586 95.0352 208.734 95.1992C208.891 95.3555 208.965 95.5586 208.957 95.8086L209.016 97.1914C209.211 96.8555 209.484 96.5156 209.836 96.1719C210.195 95.8281 210.602 95.5391 211.055 95.3047C211.516 95.0703 211.996 94.9531 212.496 94.9531C213.441 94.9531 214.219 95.2109 214.828 95.7266C215.445 96.2344 215.898 96.8242 216.188 97.4961ZM228.562 107.047C228.109 107.047 227.715 106.887 227.379 106.566C227.043 106.246 226.875 105.859 226.875 105.406C226.875 104.953 227.043 104.57 227.379 104.258C227.715 103.938 228.109 103.777 228.562 103.777C229.023 103.777 229.422 103.938 229.758 104.258C230.094 104.57 230.262 104.953 230.262 105.406C230.262 105.859 230.094 106.246 229.758 106.566C229.422 106.887 229.023 107.047 228.562 107.047Z" fill="#152536"/>
</svg>
